<mxfile host="Electron" agent="Mozilla/5.0 (Windows NT 10.0; Win64; x64) AppleWebKit/537.36 (KHTML, like Gecko) draw.io/24.7.8 Chrome/128.0.6613.36 Electron/32.0.1 Safari/537.36" version="24.7.8">
  <diagram name="Page-1" id="u08brrmg_F9hcOQMaTvI">
    <mxGraphModel dx="1338" dy="820" grid="1" gridSize="10" guides="0" tooltips="1" connect="1" arrows="1" fold="1" page="1" pageScale="1" pageWidth="850" pageHeight="1100" math="0" shadow="0">
      <root>
        <mxCell id="0" />
        <mxCell id="1" parent="0" />
        <mxCell id="gc8dFEO9YDhPJcYlbeMj-66" value="" style="shape=ext;double=1;rounded=0;whiteSpace=wrap;html=1;strokeWidth=5;movable=1;resizable=1;rotatable=1;deletable=1;editable=1;locked=0;connectable=1;" parent="1" vertex="1">
          <mxGeometry x="10" y="154" width="826" height="449" as="geometry" />
        </mxCell>
        <mxCell id="gc8dFEO9YDhPJcYlbeMj-95" value="" style="shape=partialRectangle;whiteSpace=wrap;html=1;left=0;right=0;fillColor=#363636;gradientColor=default;" parent="1" vertex="1">
          <mxGeometry x="20" y="610" width="820" height="40" as="geometry" />
        </mxCell>
        <mxCell id="gc8dFEO9YDhPJcYlbeMj-96" value="" style="shape=filledEdge;rounded=0;fixDash=1;endArrow=none;strokeWidth=5;fillColor=#feb10b;html=1;dashed=1;dashPattern=12 12;entryX=1;entryY=0.5;entryDx=0;entryDy=0;exitX=0;exitY=0.5;exitDx=0;exitDy=0;" parent="1" source="gc8dFEO9YDhPJcYlbeMj-95" target="gc8dFEO9YDhPJcYlbeMj-95" edge="1">
          <mxGeometry width="60" height="40" relative="1" as="geometry">
            <mxPoint x="74" y="367" as="sourcePoint" />
            <mxPoint x="835" y="365" as="targetPoint" />
          </mxGeometry>
        </mxCell>
        <mxCell id="gc8dFEO9YDhPJcYlbeMj-97" value="" style="shape=mxgraph.pid.heat_exchangers.plate_and_frame_heat_exchanger;html=1;pointerEvents=1;align=center;verticalLabelPosition=bottom;verticalAlign=top;dashed=0;movable=1;resizable=1;rotatable=1;deletable=1;editable=1;locked=0;connectable=1;" parent="1" vertex="1">
          <mxGeometry x="182" y="550" width="100" height="40" as="geometry" />
        </mxCell>
        <mxCell id="gc8dFEO9YDhPJcYlbeMj-98" value="" style="shape=mxgraph.pid.heat_exchangers.plate_and_frame_heat_exchanger;html=1;pointerEvents=1;align=center;verticalLabelPosition=bottom;verticalAlign=top;dashed=0;movable=1;resizable=1;rotatable=1;deletable=1;editable=1;locked=0;connectable=1;" parent="1" vertex="1">
          <mxGeometry x="282" y="550" width="100" height="40" as="geometry" />
        </mxCell>
        <mxCell id="gc8dFEO9YDhPJcYlbeMj-99" value="" style="shape=mxgraph.pid.heat_exchangers.plate_and_frame_heat_exchanger;html=1;pointerEvents=1;align=center;verticalLabelPosition=bottom;verticalAlign=top;dashed=0;movable=1;resizable=1;rotatable=1;deletable=1;editable=1;locked=0;connectable=1;" parent="1" vertex="1">
          <mxGeometry x="382" y="550" width="100" height="40" as="geometry" />
        </mxCell>
        <mxCell id="gc8dFEO9YDhPJcYlbeMj-100" value="" style="shape=mxgraph.pid.heat_exchangers.plate_and_frame_heat_exchanger;html=1;pointerEvents=1;align=center;verticalLabelPosition=bottom;verticalAlign=top;dashed=0;movable=1;resizable=1;rotatable=1;deletable=1;editable=1;locked=0;connectable=1;" parent="1" vertex="1">
          <mxGeometry x="482" y="550" width="100" height="40" as="geometry" />
        </mxCell>
        <mxCell id="gc8dFEO9YDhPJcYlbeMj-101" value="" style="shape=mxgraph.pid.heat_exchangers.plate_and_frame_heat_exchanger;html=1;pointerEvents=1;align=center;verticalLabelPosition=bottom;verticalAlign=top;dashed=0;movable=1;resizable=1;rotatable=1;deletable=1;editable=1;locked=0;connectable=1;" parent="1" vertex="1">
          <mxGeometry x="582" y="550" width="100" height="40" as="geometry" />
        </mxCell>
        <mxCell id="gc8dFEO9YDhPJcYlbeMj-102" value="" style="shape=mxgraph.pid.heat_exchangers.plate_and_frame_heat_exchanger;html=1;pointerEvents=1;align=center;verticalLabelPosition=bottom;verticalAlign=top;dashed=0;movable=1;resizable=1;rotatable=1;deletable=1;editable=1;locked=0;connectable=1;" parent="1" vertex="1">
          <mxGeometry x="20" y="550" width="80" height="40" as="geometry" />
        </mxCell>
        <mxCell id="gc8dFEO9YDhPJcYlbeMj-103" value="" style="shape=mxgraph.pid.heat_exchangers.plate_and_frame_heat_exchanger;html=1;pointerEvents=1;align=center;verticalLabelPosition=bottom;verticalAlign=top;dashed=0;" parent="1" vertex="1">
          <mxGeometry x="750" y="550" width="80" height="40" as="geometry" />
        </mxCell>
        <mxCell id="gc8dFEO9YDhPJcYlbeMj-105" value="" style="shape=mxgraph.pid.heat_exchangers.heat_exchanger_(finned_tubes);html=1;pointerEvents=1;align=center;verticalLabelPosition=bottom;verticalAlign=top;dashed=0;movable=1;resizable=1;rotatable=1;deletable=1;editable=1;locked=0;connectable=1;" parent="1" vertex="1">
          <mxGeometry x="180" y="550" width="500" height="10" as="geometry" />
        </mxCell>
        <mxCell id="gc8dFEO9YDhPJcYlbeMj-108" value="" style="shape=mxgraph.pid.heat_exchangers.heat_exchanger_(finned_tubes);html=1;pointerEvents=1;align=center;verticalLabelPosition=bottom;verticalAlign=top;dashed=0;movable=1;resizable=1;rotatable=1;deletable=1;editable=1;locked=0;connectable=1;" parent="1" vertex="1">
          <mxGeometry x="20" y="550" width="80" height="10" as="geometry" />
        </mxCell>
        <mxCell id="gc8dFEO9YDhPJcYlbeMj-109" value="" style="shape=mxgraph.pid.heat_exchangers.heat_exchanger_(finned_tubes);html=1;pointerEvents=1;align=center;verticalLabelPosition=bottom;verticalAlign=top;dashed=0;movable=1;resizable=1;rotatable=1;deletable=1;editable=1;locked=0;connectable=1;" parent="1" vertex="1">
          <mxGeometry x="750" y="550" width="80" height="10" as="geometry" />
        </mxCell>
        <mxCell id="gc8dFEO9YDhPJcYlbeMj-70" value="" style="shape=image;verticalLabelPosition=bottom;labelBackgroundColor=default;verticalAlign=top;aspect=fixed;imageAspect=0;image=data:image/png,iVBORw0KGgoAAAANSUhEUgAAAgAAAAIACAYAAAD0eNT6AAAACXBIWXMAAAsTAAALEwEAmpwYAAAgAElEQVR4nOydB3QV1RaGT3qFJISEEjqhJHQIvffee03oHaRJ7yqggKgIiiKgqIgIghR9PhBEwd6pPoqASpPekXfe7AnxIabvM/fcO/f/1vrXesunuafM7P3PzDn7CAEAAAAAAAAAAAAAAAAAAAAAAAAAAAAAAAAAAAAAAAAAAAAAAAAAAAAAAOCSy1AVQy0MxRsabehxQ8sMrTe0y9BXhg4bOmLoqKEL93XNkLyvaw/88yP3deD+f7vT0DuGXrz/t0ff/60W9387l9WdBAAAANwNP0PlDXUyNN7QUkPbRGJyvin+n8B16+b9NlHblhh69H6by93vAwAAAABSILehBoZGGnpVJD593xL6kztXd0XiG4X3DM0w1NFQCUMeSkYNAAAAcCGCDNU1NMXQVpH46l13ona0qM9b7o9BnftjAgAAANiKSJH4SnyRoS9F4lOx7gTsbKIx+eL+GNFbgohMjTQAAACgEU9DFUTid/tPDN0T+hOsq4nGjD6DzBWJn0Z8MjQDAAAAgIOgJ9Zeht409IfQn0DtpvOG3rg/xtnTOScAAACAJYSJxIREC9zuCP1J0l30p0h8s0ILJiPTnCUAAABAAaHi/0n/ttCfDN1dD5oBrBsAAACgFC+RWPjmXYGk78yibZMbDDW7P2cAAABApogSiQv5jgn9yQ3KmH4ViQsIC/5jVgEAAIBkoNXm7URiVTus3nd90RxSvYG2hrwFAAAA8BBZROJ35F+E/qQFWaPfRWI1wjABAADA7aHDbGYYuij0JyjIMbpi6BlD+QUAAAC3o6xIrLmP7XvuK/o8QLs56FRDAAAANqe0obVCf/KBnEsfGooTAAAAbAclftrG91+hP9kokYeHh8wSnkvmi60mS9bqICu1GCTrdJskmw1cINuPfUX2nLVRDly0W45Y9oMcveKgqUlvnzY1dcMFOXvbbVP0v5P++egVh8x/b+TLPxn/7Sey5+xNssO4FebfpL9Nv0G/Rb9Jv01t0D0OCkXXxnpDpVK8igAAALgMsYbeEi68oj80Mp8sVrmZrNlxrGw17DkZ/9hmOfKlH+X0TVf+SuK6RG2gtvSa/Z7Ztpodx5htpTbrHjeG6FpZY6h4mlcXAAAAp4P28K8SLpT4vbx9Zd7ilWXFZv1ly2HPyn7zd8jJ685qT/KZ1eR1Z2S/p7bLlkOfMfuUp1gls4+6xzkDoiqDKwzlTvdVBwAAQBsBIrF4D6301p1AUpVfYFZZuFw9Wbf7FJnwxDY5beMl7Unbas1475oc/Oxe85NCyZrtZVBIhPZ5SIeui8SdIv4ZuRABAAA4jk6Gjgv9CSNZ+foHyeKVm5tP9/RdftbWW9oTsm7RGIxY9r35loA+HdAY6Z6nVHTUUPuMX5YAAACsopyhXUJ/gviHwnIWlHFN+8nuM9Y7xTd7Z9fMzdfNTx+03iF3kfLa5y8F7RSJ20gBAABoIlgkFnRxqu/8lLga9XnCXFGvO6G6umhHQqM+j8vc0eW0z+tDovUBCwwFZvLaBQAAkEmaCCd63R+ZL8b8lk8r4nUnTbtqzKqfzbUDtAVR93w/IPos0DjzlzEAAID0kt3Qa0J/4JfBYTnMV9VI+o4XrRugLYfBYZHar4P7oh0n4awrGwAAQIp0N3RWaAz0Hh6eskhcI9l1ylvminbdidDdRXPQZfIaGV2hoTk3Oq8NQ2cMdWVf5QAAAP6CnqzeEZqf9ut2m2y+htad9KDkNWblYbNaoRO8FXjbUDb2VQ8AAG5OfUOnhKZgHh4VbX53doc9+nbRjPeuyvZjl8vI/LE6TQAdPdxEwfUPAABuh49ILL6iZYU/LTSjrXvYq+/aoi2FVF9A05kFdLYA7VLxU3A/AACAW1DC0HfCwQGbkkSJGm3lkMWfa09ckFoNfu4zGVuttS4j8I2hGEX3BgAA2JY+hm4IBwdpqtA35PkvtCcqyGIj8OxeGR3XVIcJoHLCvRTdIwAAYCvoNSm9LnVoYKZa/HTsre7EBDlOs7belm1m7Zb5yjXTYQReNOSr6J4BAACXJ4+hz4QDAzGdTEffh3UnI34yuyUfXX1c9l+wU3Z8dJVsOnC+rN1lgqzYfID5OaNAqVoyR4ESZkliOqI3IDjMlI9f4F9jQfX3k/55WM4C5r+bo0BJWbB0LeNvtJOVmg+UdbpONP82/Qb91qOv/6K97xw9su627Pf6Ldli6r9lRKE4R5uAPSLxtEoAAHBraonEFdMOCb5ZwnPJ1iOeNxLnTe1JKCOasv68HLBwl2w1fLGs1GKQue89e56i0tvXX8dTrCn67Yi8xcy6CJVbDTbHdcDTH8up6//QPl5pafJ7iQbA1Oqbsv6I12VweF5Hjh/Vs6ifoTsFAABsxBhDd4UDAq6Pb4D5FDt1wwXtySctUQLtPfcDWa/nNBlTtZX5RK5p8VqmRG3NlquQueiufs/pZl+ccdwHvnnr/ybAUPzy87JMq0ell4/DTBVd+yPTcZ8AAIBt8Da0TDgoIdG5885cwGfCm6dkp4mrZdXWQ82DhDy9vLUncdWiPkUVqWD2sfPE180+6x73Me/83QAkqfOig7JAXGtHjs8SQ14p3CsAAGAb6AS/zcIBgTVLtpxmyV7dieZhzdxyw1yNTqfcUb0BJyhhq0V0gBKdpZDwxDYtZZWnPvgZIBk1GrteBoXncdR4fGAo68M3CwAA2IXchr4WFgdTegUd17SfnPLOOe3JPknT3r0oO096Q5aq1dFcbGf1GLiaArJkk6VqdzLr+juq6uKsbf/8DPCwer10RpZoPNRRJu0HQ3kFAADYjFKGTgiLg2i23IVln7n/0p7wSdM3XjarCZat3136BWTRnmRdRbReg6r3UTlfq9cOJO0GSEstpu2QoVHFHdH/Xw2VEwAAYBMaGroiLAyc9IRWo/0oOX3TFe2Jv99T242k3wNJX4H8ArPKcg17yf4LPrJkriZuSp8BIPVeeUmWbDpCCusXZF42VE8AAICL09zQTWFhwKTT33rO3qQ16U9ed8bcBpezYCntSdOuom2PtG5iwhp1CwjpM0D/N9JnAJLUbNI2GRSW2+r+3jLURgAAgIvSydAdYWGgjK3eRk586zdtiZ/2vdO3a28fP+0J0l1EY126TmdlFRxHrM2YAUhcG3BaFq7ayeq+0r3TUQAAgIvRXVi4x5++E9MxvTqSPhURom/7VEbYqv5B6RNtm6S1ArSzIrPzOX5Dxg1AkmoPWi59/IOt7OOfIvF8DAAAcAkGCQuP8c0eVUQOf+Fbhyd+Wp3ecugz5kJDq/oGZf6aaDXsOXPhZUbndcaW27J/Jg0AqeP8H2RoVIyV/aNjhVEwCADg9FB1P8uCIdW3p7K4jkz8M967an7fpzLCVvYN4isoNMJcJ5BRIzDkrcwbALOK4MtnZf64Vlb2jUzAaAEAAE7KUGFRAPT09JJ1u08xD79xXOK/Zr5eplK8VvULskYhEXnMT0Tp3RUyOoWqgBnS6puyYpfHpIdxrVrULzIBQwQAADgZ8cKi1/6BWcNlwuNbHZb4yWR0eHSleTKeFf2BHCc6k6DThNfSNI4TN6Z/O2Baaj7lXzIga4RVfSIT0E8AAICT0FkkLlZSHvCoXOyYlYcdlvwHPbvHLM9rRV8gfYoqGmeeppjSvM/cqs4AkDo/fUCG5CpqVX/oXsPuAACAdpoYui0sCHSFytQx99c7IvGPW33MrNjnSqfuJYnaHBUVJatXry579OghJ02aJBcuXChXrVolN2/eLPfu3SsPHz4sjx49Ki9cuGDq2rVrMonr16//9c+PHz9u/rv039B/S3+D/tbEiRPNv02/kTt3bhcdJ09ZvlG8HP/GiWSvgcFr1BkAUs9lv8tcMbWs6g9tEWwpAABAE1ThjwqWKA9wVEmPFt9Znfhnbr4uG/V5Qvr6B2lPUGnJy8tLFitWTHbs2FHOnj1bvvvuu/LQoUPy1q1b0tHQb9Jvb9iwQc6aNUt26NBBFi1a1Gyj7nFKS1ShsUn/J/+xdXBUOssCZ0S9V16W0dW7WNUXKrCFioEAAIdT0tAloTio0ZOloxb7DX7uM5mrcFntCSklRUREyFatWsl58+bJTz75RN64ccPhiT6j0NuE3bt3y7lz55ptz549u/ZxTEl0PPHQ57/863qYoHAdwMOLA8u3m2JVCWEqsV1GAACAg8hj6JRQHMxopX/bUcssT/y0n79Gh9HmGfWq+8BRcHCwbN26tVy6dKk8ePCg7lyujAMHDsglS5bIli1byqAg53rT4uXtI2t1GmdeE1QPwBIDcF81+y21aocAHbKV+x93KQAAKCaLoW+F6uRvJOMO41ZYnvzpoB5aGa66/ZlVdHS0HDt2rPz3v/8tb9++rTtXWw59Ovjwww/lmDFjZOHCzlNQKTwqWvZfsFMOUrwO4GHVG/6aca37WNGHbwwFJ3O/AgCAErwMbRKKgxfVdu827W3Lv/XTpwVP6/Zop1v58uWTI0aMMF+V//e//9Wdk7Xy008/yenTp5tGSPe80LUR12as7PPqVUtNQOOxG6SXj78VfdhqyDuFexcAAFg8LxQHLR+/QMv3+I98+SdzG5jqtmdEWbNmlYMGDZKff/657pzrlJARop0HAwcONMdK51xFRleSnRbut9QEUK0Ai84QWJbK/QsAAJlCeYlfOuu93/wdlib/NiOXal3hX7VqVfnKK6/8bdsdSJ2rV6/K5cuXyypVqmibNx//LLLWwJcsNQEtpm2XPgGWmJ0Rqd7JAACQAeoKxSf70ZN/36f+belCP9pKqLLN6ZWvr69MSEiQ33//ve5c6vJ89913Mj4+3hxTHXNZrE6C7L3ykmUmoNWMXVa8CaB7tXYa9zQAAKRJXkNnhMIA5eXtK3vO3mRZ8h/76hEtr/zp1TV92z958qTuvGk7Tp8+ba4VyJYtm8PnNbxAWdl50UHLTEDTiVutWBNw2lBUmnc3AACkgI+hT4TS5O8ju89Yb1nyj39ss3l2gMo2pyXarz9//nzz1TWwFhpjqovg6PoC/lnCzURtlQloOGadFbsD9hryTcd9DgAA/4AWFCkLSLTKmg5msSr5U0U/R67yp6fRJ554AolfA1euXDGrIYaFhTlsvmkPf+Xucy0zAfVHvmlFnYDn0nmvAwDAX/QRKoOnh4dlRX5oi19c034OSwSBgYFy2rRp8tKlS7rzoNtz8eJFOXnyZBkQEOCw+Y9pMED2fe26JSagRr8lVrS5R/pueQAAEKKEoRtCYRCq12OqJcl/6vo/ZLFKTR0S+MnEUB1+OjAHOBenTp2SPXv2dNghRVGlGsj4l89aYgLKtZmour3XDBVL570PAHBj/Ax9JxQGoFK1O1lS2//R1ccdVss/Li7OLNwDnJsvvvjC3HrpiGsiW96Ssuuz/1FvAlbflNE1uqlu79cC6wEAAGmwQCgMPAVK1pTTN11RnvxHLPtBZs0eZXmQDwkJkS+88ILbV+xzJe7duycXL17skIJCweF5ZccFPyk3AVSNMHeJOqrbOycDcQAA4GY0MHRPKAo4EXmLy0lvn1ae/Ie/+J3Mki2n5cG9efPm8sSJE7rzGcgkv/32m2zXrp3l10lASKRsN+dL5Sag54u/yZBcRVW2le5tHB8MAPgH4YZ+FYqCTVBIhByz8rDy5D/omU9lQBZr94LnyJFDrl27Vnf+AopYs2aNuVXTymvGLzibbPPYHuUmoPPTB8y/rbCtdHJgWIYiAwDA9rwlFAUZ2opH+/FVJ38qG0zlg1W1Mzk1atTIfHIE9uLMmTOyRYsWll47voEhsuX0j5SbgGaTtqneHvhOBmMDAMDG0DYhZQGmcd856pP/U9strelP28ief/55fOu3MTS3zz77rPT3t+QkPlPefkGWmIC4TjNVt7VzBmMEAMCG0Kt/ZaV+Y6q2Ur7in177W/nkX7p0ablv3z7d+Qk4CDqCuGTJkpZdT/QmQPnngNU3ZcFKbVW285yh7BmMFQAAm7FaKAoq2fMUlVPeOac0+Q9b+rWlpX27du2Kk/rckBs3bpgHNll1XVHp4PbzvlZqAuKXn5OhUcVVtnNFhqMFAMA2NBWqnnoCgs2teSqT/yMv75PBYTksCdDe3t5y7ty5uvMQ0MyLL74ofXyU1+A3FZA1QnZ46nulJqD9vG+kt2+gqjb+VyTu/AEAuBlBho4IRcFOdZnfca8dtWyfP63y//jjj3XnHuAk7Ny5U0ZGRlpyrVGdgG6Ljyk1AdX7PKeyjccMBWc4egAAXJpnhKIgEluttdLkP2X9eZmzUGlLAnJsbKw8duyYZcnkhx9+kMOGDZMxMTHmmQFW9MGR8vX1NQ/cKVSokCxVqpSsUqWKbNy4sRw4cKBcsGCB3Lp1q/zPf/4j//zzT8vG1BEcPXrUnDMrxpCOE45ffl6pCchfoaXKNj4lAABuQ3mhqOBP1vDcctLa35Ul/5lbbsjilZtbEojr1atnHh5jBbdu3ZKDBw+Wnp6e2pO2DpFRKF++vBw9erTcvHmzeVqfq3HhwgVZp04dS8Ynb5nGss+r15QZgB4v/CoDQ5UVw/rTUGkBAHALdgkFgcPDw1P2nvO+0qf/Si0GWRKA4+Pj5e3bty1JHJT869atqz0JO5NojQW9LaCT+n788UdLxt0K6BqhQ4WsGJPidfsofQvQdMIWKdQdfrRDAABsTyehKKDVaD9KafJv1OcJSwLv2LFjLd3fP2TIEO0J19lVrlw5+fTTT8vTp09bNg+qoGvlkUcesWQcqvR4UqkJKNl0hMr2tRUAANsSIBIX/bCDRfaoInL6xsvKkn/CE9vMCoIq2vagxo8fb2myoG/+7vraPzOiNwN0xsL27dstnRcVzJo1S3n/qaJfk/HvKTMAvVdeVrk1kBYF+wsAgC2ZKlQEMQ9PszKfquQ/ZtXPMjBrduXBlgK41QwdOlR7UnVV0bG97733ntNWX7x+/br5CUN1v6m2f+dFB5WZgOZTPlT5KWCCAADYjihD14SCIEHf6VUl/2kbL8lchcsqDbAeRjCkkq+OgHYVqGy7O6ps2bJy3bp1TmcEbt68KX/99Vc5c6byMrwyolCc+fSuygTQ+gJFbbtqKJcAANiKVUJBgKC9+Sqr/ZVvFK88uM6ZM8dhSYLOEFDdfndVrVq1zDK9zgIt7iQDQJoxY4by/kbX6KbMAPR66bQMDMulqm0vCwCAbSgqErf6sINDt2nrlCX/NiOXKg+q06ZNc2iSUN1+dxdV5RsxYoRTbCOkHQFJBoBE7VLd39qDliszAY3GrlfVLooVxQQAwBasFQoCQ4ka7ZQl/1GvHJB+AVmUBtORI0c6PEmobD/0f+XLl09u2bLF4fP5IHfv3v2bASANGqR2m6qPf7DsuOAnZSYgf1wrVW17XQAAXJ5SQkHRHx/fADlm5WElyX/Ge9dkVNE4pYGU9vnr+Iassg/Q30VrOeip26r6DWlB1Q0fNgCnTp2SbdsqPZVPRhaprKxIEC0u9PJRctwxxQwUBwLAxdkoFASput0mK3v6r91lvNIAWrt2bfN7rQ5U9gNKXhUrVjRL9Tqae/fu/cMAkI4fPy6rV6+utI/l201R9hagTKtxqtr1tgAAuCwVROKJX6xAQOV+p264oCT50/ZBlfv9aRW+VeV904OqfkCpK1u2bOaWQUeSkgEg7du3TxYuXFhZ/zy9vGXL6TuVGAA6d0BRmWCKHWUFAMAl2SYUBKcOj65UtuUvW251QZNO9bPyYJ/0oKovUNry8vKSS5Yscdjc0iellAwAac+ePTI8PFxZ/0JyFZG9V15SYgJqDVimql30BhEA4GLECQUBIE+xSnLW1ltKDECNDqOVBUtaLb5r1y6HJYOUUNUfKP2yurpjEmkZANLbb79tVjdU1beybSYoMQB9V9+Q2QuWV9EmegtQRgAAXIo3hIKA1G/+DiXJf+jzX0ovbx9lgdJRhX7SQlV/oIypd+/e5ip9q0nLAJCmTp2qrF/0KaDt458pMQHNJ3+gql2vCgCAy5Df0F3BvPGjKzRUkvxnbr4ucxdR8jRiqlu3bpYH/vTC7YuqhV9Wqc+qK7Lnst9l56cPyHZzv5LNJm2T1Xs/K0s0HirzlG4oA7JGaDMBXbp0MVfqW0l6DACpZcuWyvpFVQL7vnZdyfzliq2tok13DOUTAACXYKFQEIgGLtqtxACoPOWvdOnSZo12Z4HbH90Jnq3VN01jUKXnfJm/fAvp7evYyoiDBw+2bG7T8wkgSYcPH5ZFixZV1q8qPZ9SMj+0sFBRm558OMgAAJyPrIYuCeYNX7xycyXJf9zqY9I3IFhJEPL39zdP33MmuH3SnsAVK2HFRVl/xOsyX7lm5sl3KuY9LU2fPt2Suc2IASDt2LHDvEZV9MnHP4vs9vxxJXNCb2oUtOmyoZDkAg4AwHl4VDBvdirAMmTx50oMQNn63ZUF+ueff96SQM+B2yfdCdtK0WeDmAYDpJePn+UmYOnSpcrnNrVtgClJ5ZkBxeokKJmHNo/tUXVa4OhkIw4AwCnwMXRCMG/0EjXaKkn+g5/dax4dzG0PqUmTJk53WhzB7ZfuJO0IdVt8TJZqNtLSzwO0RVB1nYDkKgGmJaoUWL9+fSV9onunzexPlcwBfZ5R0KZfDHmnEHsAAJppJxQEHhVP/7R1MG/xykoCIe33P3PmjNLgrgpu33QnZ0eq63NHZMFK7SwzAWFhYUrrQmTGAJC+/fZbZfUBcharbq6z4I5969mfqBrn1inEHgCAZtiFfwqXq6fk6Z+KB3HbkqS1a9cqC+qq4fZNd1LWoYZj1sng7PksMQFVq1aVd+7cUTK3yR0GlF7R5ypVfao3fLWScc8VU1NFezanFHwAAPrIKxQc+dtr9nvs5E+H/YTlLKgk+DVv3lxJMLcKbv90J2Ndin/5rCxUpYMlJmDcuHFK5paMRGYNAKlRo0ZK+hOSM1rJYUGNxryjoj10SBC2BALgZMwSzJs7Im8xJVX/Wg1frCTwZc2aVZ48eVJJMLcKbh91J2KtWn1TVu21QPkiQVrEquIoYTpgimMAvvjiCxkcrGYHTK2BLykZ79CoGBXtmZZaIAIAOBYvkbhAh3Vjtx21TMHT/1UZmiO/kqD3wgsvKEjR1sLto/Yk7ARqOf0j6RecTakJyJcvn7x27Rprbm/evMkyAKRZs2Yp6Q99MqGiTNyxrtFviYr2nLgfcwAATkALwQ0wYZFy+sbLbAPQYvAiJQGvcuXKTrnq/2G4/dSdfJ1FHZ78TgaF51FqAiZMmMCaWyo4xTUA9AarVKlSSvpTo89i9jj3XnlZBoTmUNGexqkFJACA43hXMG/out0ms5M/nfaXJRv/GFJ6hbt3715FKdpauH3VnXidSV2e/VmG5FJXTc/X11fu378/03NLbxC4BoC0fv1685rm9ocMEiVw7jiXazNRxfiuSyMmAQAcQKih24KVcD3lmFU/85/+hzyjJHD36NFDYYq2Fm5fdSddZ1PXxUeV7hCoVatWpt8kXblyRYkBIKk6K4Be4XPHuPOigyrqc9wSqAwIgHb6CGZQKRLXiJ38Z229KbPlLswOcAEBAfKXX35RnKatg9tf3QnXGdV+3jdK1wS88847mZrby5cvKzMAX375pXltc/tCb0joqF/uGEeVUlKsqGcasQkAYDHvC+aN3HXKW2wD0HXqWiXBetq0aYpTtLVw+6s72TqraGGgp7evkmuqXLlymXoLcOHCBWUGgDR8+HAl/aHtfNzxpdoCCtqCmgAAaCS7SDyqM9M3MS3+o337XAOQL7YqO6CEhobKixcvWpCmrYPbZ92J1plFJwxyxzdJmdkWeO7cOaUG4MCBAzIkJITdFyrowx1b2lGg4Chnij3Z0ohRAACLGCCYwaRmx7Hs5D/omU+VBOknnnjCghRtLdw+q06adDRvbKPBMjSquPT2DWS3z9PLR/oFhZnFaOhUuZJNhhlPj6/J7ktOWG8CVt+UBSq2UXJtValSJcNzS+WnVRoA0pgxY5T0p9XM3ezxLdXsERVt6S0AAFr4UDBv4BHLfmAbgFK1O7EDSUREhLx69aoFKdpauP1WlSxpdTidvKfq8KU05eEhI6Mryqq9FsqeL/5mmQno9dJpGRyeV0mbt2/fnqG5/e2335QbgIMHD5pnFnD7UrhaF/bY0loLBeP6vgAAOJwIQ3cF4+bNWag0O/lPfOtX6a2gktv8+fMtStHWwu23quSfK7a2YxJ/MvL2C5Ilmww3T/2zwgQ0HP22kna2aNEi3fOamaOA06uJE/nb8Lx8/JUYr7A8Jbhtoc8A4QIA4FDiBTOINEyYzTYATfrNYwczeiJyxad/gtt3FQkytuFAbcn/QZERqNT1cdnn1avKTUC+cs347fP2lqdPn07XvHLPAUhNhw4dMstcc/tDayS441qhwzQVc99dAAAcyhrBvHFHLd/PNgCR+fi1xSdNmmRxmrYObt+5AZy++TvstX86lb1QBXM/v0oDQHvXvX352+gWLVqUrnnlngOQloYMGcLuC63z4I5rx/k/qpjz1wQAwGFQHe7zgnHTRhWpwE7+/Z7azg4efn5+5rdWV4Xbf/7T/yDtCT85BYbmVLJQ7UHRZwZuuypUqJCueVVVBTAlff3119LHx4fdn1YzP2aPa3j+Mtx2nDPkKQAADqGaYAaOxn3nsA1A2fo92AEsISHB4hRtLdz+c4O3otPdLBF9p64zeIUyA9Dt+ePm3+S268cff0xzXi9dumSpASB16MA/Drlo7Xj2uFbsrOTAoooCAOAQ2Ef/jl5xiJX8qe6/X0AWduD4/vvvHZCmrYPbf27wVvFa3GrVGvCiMhMQU78/uz1Tp05Nc17/+OMPyw3Ahx9+yO6Lb2AI+3yATgv3qZhnHBEMgIP4UjBuVvpuz3367zJ5DTtoVK1a1QEp2lq4Y8BNiNzfd4ToqV3Fq2pS56cPmFsQOe2pVq1amvNqRQ2A5FS2bFn2+DYcs449riG5inDb8akAAByWovIAACAASURBVFgObf+7Jxg3a/X2j7ANQMla/NeXr7zyigNStLVwx8AdDACJjqDt+twRJSaAKuFx2kK7Aeign5SgssFW1ABITk899RR7bKOrd2GPaYnGQ7nt+FNgOyAAltNZMANG7znv817/v3tR+voHsdpAJVFpoZWrw50LdzEApIhCcbLPq9fYfa7Z/wV2W7Zu3ZrinN69e9chyZ90+PBhGRwczOqLj38WmbDiImtMmzy6ScUctxUAAEt5RjBuUkrc0zddYRmAzhNfZweLwYMHOzBNWwd3HNzJAJBUHGcb//JZ9tqHcePGpTinN2/edJgBIHXr1o09rg0eWcMa094rL6koHT1fAAAs5SvBuEmLV27Ofv1fqlZHdsD6/PPPHZimrYM7Du5mAGh7YMIrf7D7zS0MlNp2QPo84EgDsHHjRva4qigNnKdMI2479goAgGUECWb535bDnmUl/5lbbsiALLyz2gsWLJip41mdEc44kNzNAJDiOs5g97tyd14FSn9/f/nnn38mO6eO2AHwoE6dOiXz5MnD60+WcNn3teusMa3aawF3bqkscKAAAFhCPcEMviNf/ollAPov+IidACZMmODgNG0d3LFwRwPgE5CVXce+3Zwv2O04duxYsnNK5YIdaQBIAwfyyzlzCy+1n/e1ivmtJQAAljBVMG7OwKzZ5aytt1gGoHaXCewg8c033zg2S1sIdyzc0QCQqiU8w+v76pvS37ieOW3Ytm3bP+aT3kw5OvmTtmzZwh7T8u2nsMfUL5j3ds/QRAEAsIRtgnFzFq/Sgv39P3eR8qwAUbhwYQ1p2jo4Y0HSbQDSSky//PKL3L17t5w7d64sWbKkMgMQGV2J3feoUvVZbUjuXIDbt29rMQCk/PnzM8e0IntM85Ztwp3bzQIAoBwPQxcE4+Zs1OdxVvIf/8ZJ9sEzY8eO1ZCmrYMzFsIFDMDD36rJCKioYU/FfHosPcXqe2yjwaw2JLcTxeozAFJT//68Kocenl6yxwu/ssY0rtNM7tyeFwAA5eQXzKBL3+85BqDThNfYgX/79u0a0rR1cMfDlQxAktauXavEBNQbvprV92oJi1i/37Rp03/M54ULF7QZgDfeeIM9pvVHvska0+ZT+OWJDeURAACltBSMm9Lbx09O33iZZQAqt+I9cQUFBZnHrNoJzngIFzUApMcee4z923S6H6fvTSduZf1+9erV/zGfOhYAJokWJQYG8vbil2w6gjWmVFDI09uXO7dNBQBAKZME46bMU6wS//t/dDlWYGjdurWGFG0tnPEQLmwATpw4IYsVK8b67bxlGrP63m7uV6zfL1269N/mkrYF6kr+SapXrx6rTxGF+esAqGIj87oaLwAASlkjGDdlxeYDWMl/6oYL0tPLmxUYXnjhBU1p2jo44yFc2ACQ5syZw/rtrDkKs/reedEh1u9TPYoHuXHjhnYDwH2z4unlYzzFX2CNa/F6fbnX1WoBAFDKfsG4KVsOfYZlAOj8AM7vk6juud3gjokrG4CPP/6Y9dtUvIbTd6olwPn97Nmz/20uL126pN0AfPQRv85G8yn/Yo1rtfinuW34QQAAlOEnmBUA+83fwTIA9XtOZwWFiIgI21T/exDOmAgXNwD0zZrz214+fqy+91l1hfX7fn5+f5vLs2fPajcAtNMiNDSU1S9upUUFCwGpIqCvAAAooZxg3JAeHh5y8rozLAMQU7UlKyi0adNGU4q2Fs6YCBgApzEAugoAJacGDRqw+lWgYhutb1buq7QAACiBdQRwaI787AWAYTkLsALCk08+qTFNWwdnTISLG4Bdu3axftuZPgE4+gTA1DRx4kRWv7hrK0hB2aK411Z7AQBQwgTBuBm5JwBOWX/efIvAacOnn36qMU1bB2dMhIsbgCeeeIL12yE5o1l9V7kI0Bm+/ydp/fr1rH5Rsa745edZY6ugIuBYAQBQwlLBuBlrdhzDMgD9F+xkBQMvLy95/fp1jWnaOjjjIlzYAJw8eVLGxMSwfpuSDKfvKrcBnjlzRnviT9LPP/8sPT15FTe5BwOVavYI99paLAAASnhfcILB8MUsA9Bq2HOsYFC8eHGNKdpaOOMiXNgAPP744+zf5hataTqBd4BOUiEgZ9j//7Do7QSnbzX7LWWNLbfKosCZAAAo46Bg3Izxj21mGYDKLQexgkHHjh01p2nr4IyLcFED8NZbbzlHKWDmdrWkUsD0dkp3wn9YzZo1Y/WtROOhrLFtPO5d7vz+JAAAbOgQoJuCcTOOfOlHlgGIrtCQFQxmz56tOU1bB2dchIsZAHrtT4Vq7HIY0JAhQ8w5/OOPP7Qn/Ic1ZswYVt/ylmvKGtsOT37HneNr92MXAIBBbsG4EWnxHvcMgOxRRVjBYOPGjZrTtHVwxkW4gAE4fvy4WfCHFvzFxsbyE/995Shahd137nHAzzzzjLn97/fff9ee8B/WSy+9xOpbaFQMa2zpTADBXPhrKFIAAFhUEYybMEt4Llbyn7X1lvT29WcFgkOHDunO05bBGRfhBAZAl6r3eY7V776rb5jbCDlt2LZtm3k4le5kn5y4Wyy9fQNlv9U3WWMcEJqDO88VBQCARSvBuAnzxVZlGYBHVx9nBQFazWy3EwAfhDM2JHc0AD7+weYefk6/2z7xObsdVMjo4sWL2pN9cjpy5Ah76233pSdZYxwZXYk7xs0EAIBFgmDchCVrtte6BTBPnjy6c7SlcMaG5I4GoHSL0ex+V+4+j9UGf39/c/W/M77+T1JkZCSrj9ytgAUrtePOdU8BAGBBBTUyfRNWaj6QZQA6PrqKFQRq1KihO0dbCmdsSO5mAHz8s8juz//C7ne+crxV8nFxcfL27dvak3xqqlChAquPdYe9yhrj4vX7ced7lAAAsJgjGDdhnW6TWAagSf8nWUGgZ8+eunO0pXDGhuRuBoCe3Ll9jn/5rPT2DWC1Y9y4cU5V/S850fkZnD5W6TmfNc5l20zgzvdjAgDA4iXBuAmbDVzAMgC1u/CCwKRJk3TnaEvhjA3JnQxAROGKss+r19h9piI33LZs3bpVnj59WnuST03Dhg1j9bFc20msca7Sg2f+RWIFUwAAg/WCcRN2eHQlywBUbNafFQSefvpp3TnaUjhjQ3IXAxAYmlN2fe4Iu7+knMVrsNri7e0tz58/rz3Bp6Vp06ax+hnbcCBrnGsPWs6d97cFAIDFLsG4CXvNfo9lAErUaMsKAq+++qruHG0pnLEhuYMB8PLxZy9IS1Lnpw+w96dTCWBnXf3/oMg8c/pZqEoH1lg3HruBO/c7BACAxbeCcRMOeuZTlgEoWLoWKwjQq1Y7wxkbEjch0n5vbhsslZGs6wxZoST5k2Lq895IkejJ2plX/ydp1SreAtzcJeqyxppMG3OsvxYAABb7BeMmHLHsB5YByFGgJCsIfPbZZ7pztKVwxobETYhU8Y3bBqtET/4qk3+354+bf5Pbrq+++kp7ck+PNm3axOpntnylWePdft433LHGeQAAMDkiGDfh6BUHWQYgW65CrCBAR5vaGc7YkLhJMbYh76AmqxQYlku2nqXmtX+SSjbhLYoj0fY/Z6z9n5x27+Y9gWfNUZg13p0W7uOO92EBAGBxUjBuwnGvHWUZgKzZo1hB4NSpU7pztKVwxobETYrt5n4lPTx4Z8erFq3277b4mNLk32nhfiVP/4sWLZK//fab9uSeHn3xxResvgaH52WNeZdnf+aO9y8CAMDijGDchBPWnGIZgKCQCFYQOHv2rO4cbSmcsREKDEDiW4CB2pM+iYr8VO4+V/Z59arS5E+i0+247aPV/1RiV3diT6+++453Il9ASCRrzLsvOcEd89MCAMDikmDchJPXnWUZAP+gEFYQoGIrdoYzNkKRAei98rLMFVtbY+IPNsv7UsJQnfhJDUa9paSdLVu2lGfOnNGe2NOr/fv3s/rrFxTGGveey37njvkFAQBgcUMwbsJpGy+xDIAPs+LajRs3dOdoS+GMjVBkAJJMQEyDAY77HODhISOLVJbVez9rJgorEn9SEgoKz6OkzR988IH2pJ4R/ec//2H11zwRkDH2CSsucMf8ugAAsPhTMG7CmVtusAyAp6cXKwjQgSt2hjM2QqEBSBKtCYhtNFiGRhVXskXQ09tX+gVnkyG5isq8ZRrLUs1GyvojXpc9lp6yLOn/pdU3ZYG41kqSf5UqVVxm8V+STpzgvYL3MO5dzvj3fe06d9z/TC6gAQDSDwyAE8MZG2GBAbCTFJSi/UubN2/WntBhAAAAGQWfAJwYztgIGIAU1WLaDvPtA3d8SXSq3uXLl7Un9IwKnwAAAFgE6MRwxkbAACSr9vO+Nhewccc2SevXr3eJyn8PC4sAAQBnBeMmnPCm3m2AtOraznDGRsAA/EN0YBDtX+eOa5Jq164tr169qj2ZZ0bYBggA0FsIKDw3KwicPHlSd462FM7YCBiAv4kKz4TkKqIs+fv6+soDBw641Na/B4VCQAAAVingUa8cYBmAsJwFWUHg8OHDunO0pXDGRsAA/KUOT36rbLtfkiZNmmSuQdGdyDOrjz/+mNV/lAIGwPU5IBg34Yhl37MMAPcwoL179+rO0ZbCGRsBA2CqxbTtSr/5k/Lnzy+vX78uz507pz2RZ1Y4DAgA8J1g3IQDF33CMgDc44Bp+5Wd4YyNcHcDsPqmudVP1Wr/JHl4eMht27bJW7duaU/iHK1YsYI1DlEl67Hmp9VM3hsIgeOAAWCzSzBuwp6zNrIMQIka7VhBgM40tzOcsRFubADiXz4rC1ZurzTxJ2n8+PHm3Jw/f157Eudo4cKFrHEoVKUja44ajV3PnYvtaQU3AEDqvCMYN2H7sa+wDEDF5gNYQWDBggWaU7S1cMZGuKkBaDhqrfLv/UmqXr26vHv3rrx9+7b2BM7VlClTWGNBR0Vz5qn2oJe58/FWWsENAJA6ywTjJmw6cD7LANTuMoEVBCZOnKg7R1sKZ2yEmxmAzk8fUHKqX0oKCwuTx48fN+fF1Z/+SUOHDmWNR7m2k1jzRSc7MudkSRqxDQCQBk8Ixk1Yp+tElgFoOuApVhDo0aOH5hRtLZyxEW5iALouPipLNhkmvZlVJVOTl5eX3Lp1qzkndnj6J7Vp04Y1JlV7LWDNW5lWj3LnZXYasQ0AkAZjBOMmpFf4HAPQcfyrrCBAr2TtDGdshM0NQKeF+2Xx+v2kl4+fZYk/SS+++OJfc2KHp38SlTDmjEm94a+x5q94vb7ceXkk1cgGAEiTBMG4CUvWbM8yAP0X7GQFgaioKI3p2Xo4YyNsaAB6vXRG1h603FyBTkcGc8cnPZo1a9Zf8+HqK/8fVEQErwpnq5m7WXNZsBJvAbChnqnENQBAOmgpGDdhvtiqLAPw6OrjrCBAW7Ju3rypMUVbC2dshB0MwOqbst2cL8ztfPR938vH3yFJP0lDhgz523y48r7/B3XkyBHz3uGMTfelJ1lzGxldiTs/TVMOawCA9FBFMG7CLNlysgzArK23pLcvL6gfPHhQU3q2Hs64CBcwAH1WXTEPhaEFfO3mfCmbTtgiqyUskrGNBsuoUvWlf5Zwhyb8B9WlSxd57969v+bClav+PaydO3eyxsY8CdAwZ5y5DwjNwZ2jiinENABAOsktGDchPUVM33iZZQKy5ynKCgQbNmzQmKKthTMuwgID0G7uV2ZyDo0qbiYBbvucVfTk/2Dy/+9//+uyNf+T07Jly1jjE5YnlnUdJay4qOITTqQAALDwMHRTMG7EkS/9yDIA0RUasgLBzJkzNaZoa+GMC0lV4u+98rKMaTDAMHye2pOz1UruenLVE/9S0ujRo1ljRJ9jONcTnc3AnKdrIjF2AQCYHBSMmzH+sc0sA1C55SBWMOjQoYOG1OwYOONCUpX8c8XW1p6YrRZt9XtwtX8S9Cbg999/1560VapZs2assaJtl5xrqvHYDdz5wjkAACjifcG4GVsNe45lAFoNX8wKBsWKFdOQmh0DZ1xIKgxAbMOB2pOz1QoPD5dbtmxJdg4uXbqkPWGrFh1mxBmvWgNeZF1TtM6DOWebBQBACUsF42as2XEMywAMWLiLFQzoyY1OZrMjnHEhqfjmb/fX/lRL4sSJE8mOP5X91Z2sVevnn3+Wnp68OW09i7cFsFSzR7jztlgAAJQwXjBuxmKVm7EMwNQNF9hJZvfu3Q5OzY6BMyYk/tM/7/OMM4sWsD766KNmkk8JuxT9eVDr1q1jjpunTHjlD9Z1ladMI+78UQEzAIACOgvGzRgSmZdlAEjZchViBYR58+Y5MC07Ds6YkLgGIDQqRnuitkL0CpyO9E0NequkO1lbITrNkHW/5yrCvq4Cw3Jx57C9AAAooZxg3Iz0JDV53RmWAYit1poVEFq1auWglOxYOGNC4gZqK+vr65CPj48cMWKEuao/Ney48C9J9erVY40hVfDjXFM9X/xNxVyWFgAAJfgZuiM4ieap7SwDUL/XDFZAyJ49u7lX225wxkQoMADc33cm1alTR/7000/pGveLFy9qT9RW6OTJkzI0NJQ1jnGdZrKuqeZT/sWdy9uGfAUAQBm0rSbTN2WLIc+wDECfueygYMuKgNwxgQEQsnz58hkqFmWX0/6S0/bt29nj2WLqv1nXFJ0iyGzD9wIAoJQ3BOOmrNisP3shoKeXNyswLFmyxMJUrAfOeAg3NwDVqlWTmzZtytCbIbtV/HtYdLARZ0w9vXxkwooLrGuqWN3e3Ll9TQAAlDJRMG7KPMUqsRcC5i5SnhUY7LgOgDMewg0NAH3jb9GihdyxY0emxvvy5cvak7SV4n7/pwN8uNdURKE47jyPFwAApTQXjJvSy9tHTnv3IssAVG09lBUYgoKCzONa7QRnPIQbGYDY2Fg5d+5cefr06UyP9Z07d+Rvv/2mPUlbpaNHj8qAAN6iTtq/z7me6AwAT29f7nw3EQAApeQV3GTDXAjYeeLr7ETw4YcfKky/+mHPiU0NgLe3t1nAZ9q0aXLfvn3scbb7q3/S66/z768Gj6xhXU/NJ3+gYv5zCwCAcv4QjBuzYe/HWAZgwpun2AWBxowZoyDtOg+csRA2MgB+fn6yYsWKcuzYsXLr1q1pbuPLKHZ/9U/q378/aw48PL3MLXyc6ymu4wzutXAumbgFAFDAVsG4ObkVAUlRRSqwAkShQoVstR2QMxbCBQyAr6+vzJYtmzlvZcqUMZ/qmzRpIgcPHiwXLVok33//ffPV9YNH86rGzqv+k3Tq1CmZN29e1lxFFqnMvp4UVADclGoEAwBkmsmCcXMGBIfJWVtvsgxAnW6T2Enlyy+/tCxZOBruWOg2AM6OO7z6J7333nvsuazQfirrWuq7+ob0DQzhtgMLAAGwiDqCGSRGLPueZQD6L9jJDlTjxo3TnVeUwR0LGIDUsWvBn4fFff1Paj37E9a11G7Ol+w2GKqRVhADAGSOAMGsCNhyKK8g0MwtN2Rg1nBWkKBXnXb5DMAZBwEDkCo3btzQnpgdIXr9HxUVxZpH/yzh5hM851qq0vMp7vV0y5B/OuIYACCTfCkYN6mKdQClandiJ569e/fqzi9K4I4DDEDy/Pnnn7at9f+wqAoidx6jq3fhf/8v3ZDbjj3piF8AAAaLBOMm9fUPktM3XmYZgC6T32QHrIEDB+rOMUrgjgMMQPKcO3dOe2J2lLp27cqex4aj1rKuI9r/r+BgqSfTEb8AAAw6CmawSHh8K8sAkIHwC8zKakNwcLC8cuWK7jzDhjsXMAD/xB22/CXp8OHD5r3AmUMf/yxmAudcR43Hvcu+lgy1Tkf8AgAwyG7onmDcqNXbjWR/BihdpzM7YCxfvlx3rmHDHQMYgL/jLt/9kzRv3jz2HEbX6Ma+jko0HsJtx5+GsqUZvQAAbL4QjJs1Im9xtgHoNu1tduCqUqWK7nzDhjsGMAD/5+7du7Yu9ZucypYty57DxmM3sK+jkJzR3HZ8mo64BQBQwEzBDBqjVxzU/hmA9N133+nOOyy4/YcBSMRd9vs/qA8+4Jfd9Q0MlX1WXWFdQx0X/MRuh6GpaUYtAIASqgrmDduoz+PstwDlGvZiB474+HjduYcFt/8wAIn88ccf2hOyo9W+fXv2/NHRvdxrSEH5X1JcmlELAKAEL0PnBeOGzR1djm0A+i/4iB046HjYkydP6s4/mYbbfxgAaS4G1Z2MHa2vvvrKPDCJO3+tZ+1mX0PZ8pbktuOsIc80oxYAQBlvCmbweOTlfWwTEJk/lh3EJkyYoDsHZRpu393dALjbor8kDRgwgD13lLi510+Hp75nt8PQq2lGKwCAUnoJ5o3bIH4m2wA0HcCuHiazZs1qbv1yRbh9d2cDcOfOHbdb9Ec6ePCgzJIlC3vuqvZayL5+yrebosIAdEszWgEAlELbAe8Kxo2bs2AptgGY+NZv0tvHjx1EaDuUK8Ltt7saAHeq9Pewxo8fz543Lx9/9tG/pNCoGG5bqDQ5tv8BoIEPBDOQcA8HMmsC1O3CDmjZs2d3ycJA3H67owGgFf9nz57Vnoh1Pf2HhLBP3FNS+rfd3K/Y7RCJR5QDADTQVzBv4Jodx7ANwKBn96gIJPKxxx7TkpA4cPvsbgaAkv/58+e1J2JdGjVqlJJ7RcXiv1LNRqpoS3waMQoAYBFhhm4Lxg0cHBYpZ7x3jW0C8peswQ4moaGh8sKFCw5PShy4fXY3A+Aux/smpwMHDpjrXbhzliu2Nvu6odoB/lmzc9ty+34MAgBogl7BsW7kLpPXsA1At2nrVDxNyClTpjg8KXHg9tedDIA71fhPTkOHDlVyjzQau5593dQb/pqKtmxMIzYBACwmQTBv5OgKDdkGYNbWW2aJYW5bAgIC5PHjxx2amDhw++suBuDq1avaE7BO7dmzR/r58RfLhuQqKvuuvsG+bqJK1lNhALqnFZwAANYSauiWYNzIHh6ecszKw2wT0GrYcyqCiuzSpYvDEhMXbl/dwQC4617/B9W0aVMl90bN/i+wr5nOiw6a9zyzLTcNZU0jNgEAHMB6wQwsdbpOZBsAOh8ga/YoJYFu165dDklOXLj9tLsBuHnzpvbkq1tvv80/OIsUHJ5X9l55mX3NlG0zQUV71qYRkwAADqK5YN7QQaERZgLnmoCWQ59REuzi4uLkvXv3LE9QXLj9tLMBuHXrllsW+nlQJ06ckLGx/GqZpBr9lrCvl94rL8mAkEgV7WmURkwCADgIqsP9i2De1G1GLmUbANpREJazgJKAt3jxYksTlAq4fbSrAUDyT9SMGTOU3AtZIvKzT/0jVe+j5DMdxRqvVCMSAMChzBDMGzt7nqJy1tabbBNARoLbFhKVS6UnKGeG20c7GgAk/0R9/vnnMigoSMm9UHvQcva10m/1TRkaxV+oa2hK6qEIAOBo8hj6UzBv7h4z32UbgJlbbsjsUUWUBL5mzZpZkqRUwe2f3QzA7du3kfzvq0GDBkrugZCc0bLPq9fY10rDUWtVtIdiTN5UIxEAQAvsmgAFy9RmGwBSpwlK9hmbWrNmjfJEpQpu3+xkAPDk/389++yzyq7/+iPf5D/9G8pZrJqK9ryXagQCAGijrVAQcAY/9xnbAFBdgHyxSgKOjIiIMA+OcUa4fbOLAaDV/kj+ifrmm29kWFiYkms/V0wtJcm/1czdqgxJ61QjEABAGz6GTgjmTR5bvY2StwBDFn+uYr+xqUaNGpl15J0Nbr/sYACwz///OnXqlKxXT0mRHenh6SXbzflCiQHIV66ZijYdN+SdWgACAOhlrOAGHg8POeiZT5WYgPKN4pUEQxK9VnU2uH1ydQNw7do17UnXmTR16lRl13tM/f5Kkn+b2Z9KYdzTCtr0SKqRBwCgnSyGLgnmzV6scjMlBmD8GyelXyD/ABQSlVL9/vvvFaRtdXD75MoGwN3L+z6s7du3Kyn3S/IJyCq7LzmhxABElaqvok2XBSr/AeASzBcKgtCApz9WYgKa9JunJCiSSpQoYT51Ogvc/riqAbh06ZL2hOtMOnTokIyOjlZ2nVfttVBJ8m85/SNVbZqTSrwBADgRtCXwjmDe9IXL11diAGhbYFSRCsqCY9u2bZ1mPQC3L65mAGjc6chm3QnXmUTf/Zs3b67s+o6Mrij7vnZdiQGgRYQK2nTnfkwBALgIrwsFwajvU/9WYgKGLvlKenn7KAuSCxYssCCdZxxV/dGljEClmc+dO6c94TqbJk6cqGw+PL19Zft53yhJ/s0mbVPVrlUCAOBSlBcKbv6oonFKqgOSanUapyxQent7y48++siarJ4BVPVHl9LL3bt35ZkzZ7QnW2fT2rVrpZeXl7L5KNduspLkT0cGhxcoq6JN/zVUWgAAXI4tQkFQajfmZSUGYNrGS8oqBJIiIyPlkSNHLEzvaaOqL7qUHqi6H9Vh0J1snU2ffPKJzJYtm7K5CM1dTMlpfyQ6OEhRuzYIAIBLQm8ByMGzgkBwWKSc8s45JSag/4KPpKenuiem4sWLyz/++MPiNJ8yqvqhS2lx/fp1FPhJRj/++KMsWLCgsnnw9PKWrWZ+rCT5xy8/JwNCc6hoF8WOMgIA4LKsFwoCVO0u45UYAFKdbpOUJrGaNWuaZWh1oLIfOpQaly9f1p5onVFHjx6VFStWVDoPFTpMU5L8SaWaj1LVrrcEAMClKWHonmAGAy9vXzlq+X41uwI2X5d5i1dWGkC7d++uZWeAyj7oUHLQYr/z589rT7TOKFrx36pVK6VzkKNoVWWr/jst3C+9fJTUIqBDf2IEAMDleVMoCFSx1VorewswesVBZQWCkjR8+HAHp3/7GYA7d+7I06dPa0+0zqoBAwYoHX/fwBDZedEhZU//ikr+kl4TAABbUNTQXaEgMHSdulaZCWg3+iXlCW3y5MkwAJk0AFRgCd/7U9awYcOUj3+dISuUJf96w1erahc9/RcTAADbsEIoCA5ZwnPJyevOKjMBFRr3piwE6wAAIABJREFUVh5Un3jiCYcZgMDAQO1JPLMKCgoy+4DiPmlr/Pjxysc/psEAZcm/57LfVS38Iy0TAABbkUMk1vNmB4iKzforMwDTN15WWiUwSYsWLXKIAYiNjdWeyDMrajv296etGTNmKB/7yOhKss+qK8oMQLE6CaradsVQTgEAsB2ThIIgQacF9p77gTITMPbVIzIoJEJ5kKXAbTVDhw7Vnsgzq4EDB+KVfxqaNEntjhVSQNYI2fW5I8qSf/MpH6o67Y80VgAAbImfoZ+FgkBBBX2osI8qE0CGgvZCq2jbg6JXt1byww8/SE9PT+3JPKOiNtPpdboTrDNr1Chl2+n+P+7GNd58yr+UJX8qHEQFhBS17z/3YwQAwKa0F4qCWfV2I5UZAJLKUwMf1MiRIy3dIjhkyBDtCT2jio+P155gnVW01S8hIcGSca/aa4Gy5E8q0VjpG6iWAgBge/4lFAQM+hTQc9ZGpSagcqvBlgTejh07yhs3blhiAKgIUd26dbUn9fSqWrVq8tixY9oTrTOKxoVOm7Ri3IvX76c0+TedsFnlq/9/CwCAW0DlPWmrDztw0K6AiW/9qswA0NHBMVVbWhKAq1atKs+ePWuZCRg8eLBTfw6gtvXq1QvJPwXt27dPVqlSxZKxz1uuqbJiP6TuS0+qXPVPW4RLCACA27BAKApuMVVbKX0LMO3dizJPMbWlVpNUuHBheejQIUtMAEFrAmi/eExMjFNsEQwICJBFihSRvXv3xjf/VLRnzx7z2rBiDrIXLC8TXvlD3dP/6psyX/nmKts4J5n4AACwMYEicdGPkiDSeuQSpSbg0dXHZUhkXksCckREhNyxY4dlJsAZoBP8sL0vfXrrrbeUnur3oLJEFJDdn/9F6av/agmLVLbxqKGgDEcPAIDL00goCiS+/kFy+IvfKTUBdPZAlmw5LQnMdIb73LlztZwfYCXUn0uXLmlPqq4gWuw3c+ZM6e2tfvcJKSAkUnac/4PS5N9uzpfS2zdAVRvptL96mYgbAACbsEooCni0NVBllUDSsKXfyMCs4ZYEaFLr1q3NhGkHbt68iTr+6RR9BmreXOlr9L/JP0u47PDkt0qTf6+XTsusOZR+png5w9ECAGArwg2dEYqCSvEqLeSsrbeUmoDBz+6V/kEhlgVrqohH3+5dFarmh9P70q9//etfMjo62rLryTcwVLZ9/DOlyZ+++xeIa62ynb8bCstgrAAA2JBuQmEAbJgwW6kBIPVf8JH5mUFlOx+Uv7+/WT7YlT4JUFuvXLmCan7pFL3ynzZtmvT19bXsOvLxD5atZuxSm/wNlW8/RXVbO2YwRgAAbMwaoSi4eHh4yp6zNyk3AYOe+VQGZLFmsVaSGjRoYCYLZ4dqGuB1f/r13XffyXr16ll67dCTf8vpO5Un/6YTtkgPTy+VbV2XwdgAALA52QydFIqCDH23H73ioHITQJ8DArNmtzSQ0y6BN954Q3eOT5Y7d+7Ic+fOaU+orqRnn33WslX+SfI3rknlr/0NdVzwk/QLClPZ1l8MhWYoMgAA3IJaQlGBIFK2XIXkhDWnlJuAEcu+l1nDc1sa0ElNmzaVx48f153zTeg7P47szZi+/vpr2aRJE8uvEyrI027uV8qTf88Xf5MhuYqobOs9Q3UzEA8AAG7Gk0JhcMxfsoacvumKchPwyMv7ZGhkPsuDe5YsWcwnyHv37mlJ/PS7ly9fxnf+DOjEiRPmSZCOKMRE+/w7LdyvPPnTUcG5Ymurbu9jGYgDAAA3xMfQF0Jh4ClVq6PynQGkR1//ReYuUt7yIE8qV66c3LVrl8MSf9ICv99//117QnUlrVu3ztzV4YhrIlu+0rLr4qPKkz+t+I+u0VV1e78y5JvOGAAAcGNiDF0XCgNQna4TlRsA0tQNF2Txytbt535YLVq0kEePHrU08V+9ehWJP4P68ssvZYcOHRx2HeSv0FImrLigPvkbKtNqnOr2XjVUJF13PgAAGPQSioNmm5FLLTEBdIBQ5ZaDHBb8qb7+xIkTzW/yKhP/tWvXkPgzqJ9++kkOHTpU+vn5OWz+6QhelQf7PKjqfZ6zos1d0nXHAwDAAywWCgMRbQ/s+OgqS0wAqemAp6Sn2u1SqSokJMQsJUvf6DMLfePHq/6M6+DBg3L06NHmGg1Hzbenl7es2muhJYmfVGfwCvMeUdzuhem81wEA4G/QeoCPhcogaiTozpPesMwE9J77gQwKiXBYUiCFh4fLOXPmZMgI/Pnnn+a/j8Sf8cQ/fvx403w5co4DskbI5lP+ZVnybzhqrWkwFLf7U4Hv/gAABjkN/SoUBiYvb19LCgUladxrR2Xe4pUdmiBI9DQ6YsQIcxV6StA+/osXL2JVfwb17bffmk/8jk78JDrOt8szhy1L/k0nbpVePso/YVCp39xp3t0AAJAG1QzdFgoDlI9foOz75IeWmQDaelihSR+HJwsSlZrt1auXWX0uCTqoB/X6M64PPvhAtm/f3rIT+9JSTP3+5pY8q5I/VQ709lNe4vqOoZpp3NMAAJBuRgrFwdUvMKvs99R2y0wAqf3Y5ebvqG57ehUXFycXLlwoDx8+rD2ZuoropL4nn3xSli1bVtu8+QaGyLpDV1qW+Ektpv5b+vhbsoZhaKp3MgAAZILnhOJgRW8C4h/bbKkJoJLEeWOqaEsmpODgYNm9e3e5ceNG81Aa3UnW2XTy5Em5YcMG2bVrVxkUZN2hT+lRzmLVZOdFhyxN/s0nf2AeHGRB+19I5f4FAIBM42XoXaE4aNGagK5T3rLUBMzcfF026vO48Vs+WpMLKVeuXLJv375mwnN3M7Bjxw7z237+/Pm1zwstwivTcqzs8+pVS5N/ozHvSC8ffyv6sOX+PQoAAJYQaOhzoTr4enrJdmNettQEkAYs3CWzRymtr85Svnz5ZP/+/c3Dh6jAkO6EbLWoj6+//rrZ57x582of/ySF5i4mW83cbWniJ9UdusowGpaY0K8NBSdzvwIAgFJodfEJYYEJaD1yieUmYPrGy7J2l/FO8TbgQVGBofr168vHH39cfvTRR7Z4O0B9oKf82bNnm8fxUh91j/PfrjlvX1mu7STZe+Vly5M/FfmxYJ8/6bhI3K0DAAAOoYShi8KCoFy19VA5a+tNy43A0CVfyaiicdqTUEoKDQ2VDRo0MKsOrl+/Xv7888/aE3paoja+8847csKECaaZ0bFtL72KjK4k28/72vLET7X9y7ebYlU/LhsqLQAAwMHUM3RTWBDYytTtaskpgv9YG7Dlhmw6cL7WnQLplaenpyxQoIBs3ry5HDNmjHzppZfkzp07tXw6OHLkiPnby5YtM7/hN2vWzGwbtVH3OKUl38BQs6Jf39U3LE/+vVdekoWrdrKqLzcM1RYAAKCJRoZuCQsCHK3cn7DmlOUmgDT+jZOyQuPeVr2itVyRkZHmlsO2bduatfGnTZsmFy1aJFetWiU3bdokd+/eLffs2SP37dsn9+/f/7dtifS/6Z9RXX36d+jfpd0KK1eulE8//bT5t+hv0t+uUKGC+Vu6+5sZeXh6yeL1+soeS09Z/9RvqOeLv8mcxWtY1R/a699cAACAZjoa+lNYEOiy5ykqR71ywLLEP2PLLTlh4235yLrbcuCaW7Lt459ZGbQhTcoVU0u2m/OFQxI/qdPCfTIkZ7RV/blrqL0AAAAnoaehe8KCgBeQJZuyWgGzDE3ZdEuOWX9LDn0r5W+29YavtjKAQw5SSK6isv7INx2W+EmNH90o/YKzWdWn/xrqKwAAwMnoIxIDlPLA5+HhIWt2HJvhxYEzt96WkzfdlmPX35bD1t6S/TMQyOkbcf0Rr8usOQprT2RQxhScPZ+s0fd52efVa45L/oZxrNjlMSs/I9G9NVgAAICTMlpYZAJIMVVbysnrzqaY8Kdtvi3Hv3vLfKU/eE3GEn5KosIwtQctl1kiC2pPbFDqCgrPI6v0nO+QbX0PqtdLp2W+cs2s7BvdU6MEAAA4OQOFRZ8DSOFR0XLIkq/llPdumcl+1Dv0Ov+27P+GtUGekgo9VVLRGKv6BmVOoVExsmb/Fyw9uCcltZvzpcyao5CV/aPkP0IAAICL0E0kLlayJCh6+waYT3r02tXRAZ9+k45wtfiJD0qHchStan6m6fvadcdfB4bozZAFp/k9KFpcmyAAAMDFaCUs2iKYpDylG8ruz/+iJfiTWs/+RBau1sWq2u5QMqKxjq7eRbaZ/am2eaethPnKN7e6r3QEdwcBAAAuSjORWLDEskAZkDVCNh67QVsyIPV66Yz5eSA8fxntCdKuCo0qbi6y6/HCr1rnuumELTIwLJfV/SXjTAYaAABcGqoYSCVLrQuYHh6yZJPhMmHFRa3JgdRqxi5ZtHa8eaa8pX12A1HVvmJ1ezvkoJ60RNdWicZDzWvN4n5Tie3aAgAAbAKdHXBcWJwwaDFWs0nbtCcLEi0apKNfo2t0kz4Bzl9q2Fnk7Rtorq+gb/uOXs2fklpM2+6oxZ+nDJURAABgM3IZ+kpYHUSNJzRKulSKVXfiePDpscEja8z1Av5ZwrUnWWeTf9bsxpx1lQ1HrTXr5+ueryTR9j4qH+yAp37Sd4byCAAAsClBhjYJBySVgNAc5lOk7iTysKjAUJvH9pjfs6NK1pOeXt7aE7CjRcVyshcsL8u0HGvuqHBowZ50it7eBIXldtSYbDOU5R93CwAA2AwvQ0uEg5JN/rhWsvPTB7QnlJREi9qoXG3JpiNkROGKhiHw0Z6gVYv6FBld0exjg1FvOdXbmYfVccFPjt7i+cz9ewIAANwGKm5Cp5pZHmS9fPzMp8345ee0J5i0lLDigmw+5UMZ13GGLFiprVmK2JVOKaS2Upup7dQH6gv1Sfe4pqX4l8/K0i1GS09vX0eNFW3zG5qO+wQAAGxJDUO/CQclJ/r+TgWEdBWOybQpeOUP2XrWblmj3xJzJXresk3M6ndUEMlRY/ew6LepDXnLNZUlmwyTNfstNesiUFt1j1dGRJ9kqKBPQIhDjzn+1VC1DN0pAABgQ3Ib+kQ4MHnR9+fmkz/QnnxUiAohtZr5saw77FXT3JRrO0nGNhwoC1XpKHOXqCOz5StlnmNAolPq/ILCpI9/8F9jQf+b/hmZo6R/L1u+0uZ/S3+D/la5dpNl1V4LzN+gLXndl5zQ3m8Voh0j4QXKOto8fWwop6J7BwAAXB5vQ3OFg59iqZSsXYwAlH61nL7TMDh1HZ34SS8a8lF0zwAAgK3oYeiacHBgzlOmkfn6WndigqwVvb2IKtVAR+K/aqironsEAABsSzHhiHoBD8vDQ+Yv3wJGwIaixK/x8KYvDBVRc2sAAID9oU8CM0TiaWgOD9q6T5mD+KLFfbSXn2ot6LiGROIxvrTFz5d/OwAAgPtR19BJoSeAm6WFaWGdK2xjgxJF5YNpVT/tUNB13Rg6IVDPHwAA2GQz9LbQF8zNEwfLtpkgOy86qD3BQcmLij3RHNFc6bxWDK0xFMq+6gEAAPxFS5G4f1pbcKciN/RKmZ4wneHkQXdXn1VXzE819H3fw9NLd+I/bagX+yoHAACQLOGGVorE76taAz4dYFOq2SOy/bxvtCdCd1P7eV8bYz/SWQ5WomtxuaEwzoUNAAAgfdQydEjoD/6m6Htz+XZTZIenvteeHO0q+vxC6zGyFyinfb4f0BFDDRnXMQAAgEwQaGi+0LRTICVRFb2KnWfJTgv3aU+ari46mCeu00yzmqHueX1Id0Vi4aqATF67AAAAFFBcJB6nqjsp/ENUVpfOk6fv1K5wEJFu0boKOh6YDm6ics265y8FbTdUOlNXKgAAAEtoKxJfyepOEMmKDs+hioNUU5++YdM+dd0JV7doDNrN/cp8tZ+ndEOthxulQz8bapWJ6xIAAIADoDrrIw1dFvoTRqry8c9i7iigtQP01OsOtQaojy2m7TATfsHK7c3DiXTPQzpEpalnGPLLyIUIAABAD3Ta2ssi8Vut7gSSLnl6+ciIwhXNTwbV4p+Wzad8KHsu+1170s6ser74m9GHf5l9KV63j9k36qPucc6A6NpZZihHuq86AAAATkNRQ6sN3RP6E0qmFJQtSuYt01iWaj5KVktYJBuPe1d2ePJbp6hDQG2gtjQeu8FsG22LpLZSm3WPG0O0qPRVQ9FpXl0AAACcnhIisZqg9voBKhUQmkNGRleSBSq2kcXr9zMr4VXp8aRZqIiScquZH5sJmqrkkeipnN4qxC8//1cSp/9N/4z+v6R/j2ob0H9Lf4P+Fv3Nsq3Hm28n6LfoNwNCIrX3X7HIJL5lKCaFawgAAIALU9LQWmEzIwCx9aGh8gIAAIDtoW1cLxq6KfQnH0iP7ohEM1hRAAAAcDtoseAMQxeE/oQEOUZXROIxvXkFAAAAtydYJG4fPC70JyjIGv0mEs0eTuoDAADwD7wNtTG0WThZiWEoU6I5fM9Q6/tzCwAAAKRJbkPjDR0V+hMZlDGdEom1+gs8PKkAAABAevE01MTQOkO3hP7kBiUvWtBJi/oa358zAAAAQBl0AmFHkfha+bbQn/TcXfSKn7bw9TKUNZV5AwAAAJRBi8ko8cAMOD7pfyISF21GpDlLAAAAgIWEG+ouEssOnxX6k6TddMbQa4a6GcqWzjkBAAAAHAp9f64gEhcQ0utpKjijO4G6mugp/yuRuJCvhsA3fQAAAC4IPbG2NbTA0F4BQ5Cc6BPKHkPzReI2TDzlAwAAsB0BhmoZmij0J17dmmCo5v0xAQAAANwG3QlYtwAAAAC3RHcC1i0AAADALWEl0Bat28sGjZvJmrXryUpVqskyZSvI4jElZIGChWTOXLllePYIGRaWTWbJktWUv7+/9PXzkz4+Pn/9Dfrf9M/o/0v69+i/of+W/kaBgoXNv0l/m36Dfot+k36b237LRxcAAABwUlgJtHe/wVrFbb8DxhcAAABwSmAAAAAAADcEBgAAAABwQ2AAAAAAADcEBgAAAABwQ2AAAAAAADcEBgAAAABwQ2AAAAAAADcEBgAAAABwQ2AAAAAAADcEBgAAAABwQ2AAAAAAADcEBgAAAABwQ2AAAAAAADcEBgAAAABwQ2AAAAAA2IJShp4ztN/QdcFPEBDkzqJ7iO4luqfo3gIAAKfDz9ASQ/eE/qAJQXYU3Vt0j9G9BgAATgEFpB1Cf4CEIHcQ3WswAQAAp+B5oT8oQpA7ie45AADQCn2XxGt/CHKs6J7DmgAAgFYWC/3BEILcUXTvAQCANvYJ/YEQgtxRdO8BAIA2bgj9gRCC3FF07wEAgDZ0B0EIcmcBAIA2dAdACHJnAQCANnQHQAhyZwEAgDZ0B0AIcmcBAIA2dAdACHJnAQCANnQHQAhyZwEAgDZ0B0AIcmcBAIA2dAdACHJnAQCANlgB7Ndff4Ugp9cX3+6Xuz77Xrm4948D7m8AAEgRGADI1jr081FLkj8MAADA1YEBgGyrU6dOyT1f/QQDAAAAyQADANlWP+7/2bLkDwMAAHB1YAAgW+r4Lyfkx59bl/xhAAAArg4MAGRLWbXwDwYAAGAXYAAg2+nA4SOWJ38YAACAqwMDANlKJ06ekp98+SMMAAAApAEMgBtp+/btsnfv3rJIkSIyICDAFP1v+mf0/+lunwp988NBhyR/GAAAgKsDA+AGOnbsmOzVq5f09PRMcS7p/6N/h/5d3e3NrH4+csxhyR8GAADg6sAA2FyU0KtVq5buOa1atao8fPiw9nZnVCdPnZKfOujVPwwAAMAOwADYXPHx8Rme10qVKrmcCfjaga/+YQAAAHYABsDGou/6qb32T02uZAIO/8exr/5hAAAAdgAGwMZKSEhgza8rmIATJ046/NU/DAAAwA7AANhYRYsWZScpZzcBX353QEvyhwEAALg6MAA2lr+/v4okJePi4uShQ4e09+dh7T/kmII/MAAAADsCA2Bjcef3QTmbCTh67BetyR8GAADg6sAA2Fjc+X1YzmICTp609phfGAAAgDsAA2Bjcec3OTmDCfjmx0Pakz8MAADA1YEBsLG485uSdJqAA5q/+8MAAADsAgyAjcWd39SkwwTQd/+PP9ef+GEAAAB2AAbAxuLOb1py5BZBnfv9YQAAAHYEBsDG4s5veuSINwGnTp2SX3y7X3vChwEAANgJGAAbizu/6ZXVJuD7fYe1J3sYAACA3YABsLG485sRWWUCDh52nkV/MAAAADsBA2Bjcec3o1JtAv5z9LhTLfqDAQAA2AkYABuLO7+ZkSoTcPyXE/ITJ1v0BwMAALATMAA2Fnd+MyuuCTh58qTc+/U+7QkeBgAAYGdgAGws7vxyxDEBzrjiHwYAAGA3YABsLO78cpUZE/DNDwe1J3YYAACAOwADYGNx51eFMmICnHW7HwwAAMCOwADYWNz5VaX0mICfDv5He0KHAQAAuBO2MgDbt2+XvXv3lkWKFJEBAQHaEx/0f6VWNtiZ9/rDAAAA7AorgOlO+Ek6duyY7NWrl/T09NSe6KCUlZwJ+PnIMfnx5z9oT+YwAAAAd4MVwHQn/qTkX61aNe3JDUqfHjQBiYV+XDP5wwAAAFwdVgDTnfxJ8fHx2pOaXVW0THVL/i6ZgB9+2id3f+G6yR8GAADg6rACmO7kT9/88drfOi3bedEyE1C6bDn5/kd7tSdxGAAAgLvCCmC6DUBCQoL2JGlnvfr5XUtNQKkyrm0CFIwBAABogxXAdBuAokWLak+SdhYZAJgAGAAAgD1hBTDdBsDf3197krSzkgwA6aWdl2RM+dqW/E7JUmXlth17tCd0GAAAgDvBCmC6DQC3/VDK8gsI+psBgAmAAQAA2AtWAIMBsK+iCsb8wwDgcwAMAADAPrACGAyAfdWgw+BkDQBMAAwAAMAesAIYDIA95eHpKR9/49sUDQBMAAwAAMD1YQUwGAB7qn6HQakmf5gAGAAAgOvDCmAwAPZTTIU68pXd19JlANzdBCjoIwAAaIMVwGAA7CN67V+//cAMJf8HTUARNzQBCvoHAADaYAUwGADXlq9/oMxdoLhs2HFImt/8U9PS3XflwFV/yJzFrDmUyVlNgIK+AQCANlgBzNUNQGYTHvR/PfPRHTnozVuy3+u3ZMIrf8hcMbUsMQHOWCdAQb8AAEAbMABQpjXvwzuy/+uJyT9J7mQCFPQJAAC0AQMAZVirPrsrp753+2+J/0HFLz9v2eeAsuXi5L93f6k9+cMAAABcHRgAKEN66dM7cvQ7KSd/R5iANu07a0/+MAAAAFcHBgBKt57beUcOWZN28rfaBHh6esoVr6+DAQAAAAYwAFCaWmVozgd3ZP830pf4HWEC2nboAgMAAAAMYACgVPXKnrtywsb0P/U7ygQUKFgIBgAAABjAAEAp6vldd+XwtZlP/FaaAH9/fxgAAABgAAMA/UNJr/wHZOKVf0pSvT3QPyAABgAAABjAAEB/0/I9d+S4d3mv/PEJAAYAAOD8wABAf+npHRlb5Y9FgDAAAADXBQYAkq/sTb2wj7Mlf2wDBAAAPjAAbq7FO+/IYYoW+jki+ZNQCAgAAPjAALipVn52V87cajz1K1zo54jkj1LAAACgBhgANxRV9BvxtvrEb8Vq/wdVqjQOAwIAAFXAALiRkr71P3yCH5I/DAAAwP1wawPg7vL2DZShUcVlbKPBst3cr5z2tX+pMuXk+x/t1Z7wYQAAAHaCFcBgAOwjDw9PGdNggOy98jKSPwwAAMANYAUwGAD7KVds7QyZAHdN/jAAAABXhxXAYADsqdiGA5H8YQAAADaHFcBgAOwp+hyQ1poAd0/+MAAAAFeHFcBgAOyr2IaDkPxhAAAANoYVwGAA7KvQqBgkfxgAAICNYQUwGAD7yts3wO33+cMAAADsDCuA6TYAAQEB2hOlnYXkDwMAALAvrACm2wAULVpUe5K0s/DaHwYAAGBfWAFMtwFISEjQniTtLCR/GAAAgH1hBTDdBmD79u3m2fDcfkDJC8kfBgAAYF9YAUy3ASDFx8drT5R2FZI/DAAAwL6wApju5E86duyYrFbNmkQFqZddkj8MAADA1WEFMN3J/0ET0KtXL3wOcHLZKfnDAAAAXJ3/tXMnO25UURiArWzIWxAiZYlCBDwHEOZlS2x4HoYtK3Y8AmIBIZCpk/RIz+52PwIsUeFbgg3CjeXq8qlb5/ukX4qSLEpunXt+u8rd6QCLXvz/TnkmYGNjo7lz546vCA4sY1v+CgBQu04HWPTCrynT81mztXfYPHiyXdOCup7lX+n3/BUAYMwUgJ5zeHzWPHmxV+uCsvwVAGCkFIAecjY9X/u7/SEWgDEvfwUAqJ0CcE05v5g1u78dN7882wlfTEMoAGNf/goAUDsFoEMu5kt/7+Ckefw85iP+oRaADMtfAQBqpwCs+E6/3Nf/8dFW+BIaWgHIsvwVAKB2CsASOZteNDv7x82jzd3wpTPkApBp+SsAQO0UgP/I5eVlc3QybV7uHjYPnw7nnv6QC0C25a8AALVTAP7O6dl5+9H+05f7g/9of2gFIOPyVwCA2qUtANPzi/YBvmfzhf/g8TgWfkQByLr8FQCgdikKwOzysjk+mTY7+0ftO/zo7+dXtKCuXv53x/frfRUAIIvRFYBy/748tLd/eNK82Dloft3cHc1H+kMqAJnf+SsAwBhUXQDad/an0/be/fPtf5Z9/GIYSrr+fBfF8r+21xcgTBUF4GI2a5/KL/fsy5P55Tv4NT+dX9GCsvz7fX0BwoQXgFn7kf35fMGftQt+a++o2dz6rf3teg+f5rhXP+AFZfn3+/oChOl0gM1ml+2vwy1P1Jeczhf5yem0XeYHx2ftffjy8fz2/lF7P35z+2D+7n2//X35Pyd5EK/yBWX59/v6AoTpdIBFH8BydW7evGn595hreG0BwigAI86t1253X/53c3/V76p0fW17mGeApSkAI857H3xi+feYrvPTx0ADLEsBGHG++faMhYaCAAACZ0lEQVS75saNG5Z/T+k6P/2MNMByFICR5933P7b8e0rX+elppgGWogCMPN//9KS59+bbS/9M37j3luW/ZLrOT29TDbAEBSBBSgl45/5HV94OKP9W/k/5v9HXW0u6zk+vkw3wPxSARCnPBNz/8NPm1Vu3268IlpQ/l78r/xZ9fbWl6/ysYb4BFlIARFZM1/lZw3wDLKQAiKyYrvOzhvkGWEgBEFkxXednDfMNsJACILJius7PGuYbYCEFQGTFdJ2fNcw3wEIKgMiK6To/a5hvgIUUAJEV03V+1jDfAAspACIrpuv8rGG+ARa6jkNMRFYLQJjoA1AkcwDCRB+AIpkDECb6ABTJHIAw0QegSOYAhIk+AEUyByBM9AEokjkAYaIPQJHMAQjzxyT+EBTJmN8nAIF2J/EHoUjGlNkDCPPlJP4gFMmYMnsAYV6f589J/GEokill5srsAYT6ahJ/IIpkSpk5gHCvzPPDJP5QFMmQMmtl5gAGoRxIX0/cDhDpK2W2yoxZ/sAglfuSX8yzN/EVQZGuKTNUZqnMlHv+ACPSaUFsfPZ5aLpe/xpeXwAYJAUAABJSAAAgIQUAABJSAAAgIQUAABJSAAAgIQUAABJSAAAgIQUAABJSAAAgIQUAABJSAAAgIQUAABJSAAAgIQUAABJSAAAgIQUAABJSAAAgIQUAABJSAAAgIQUAABJSAAAgIQUAABKqfYHWfv0AEKL2BVr79QNAiNoXaO3XDwAhal+gtV8/AISofYHWfv0AEKL2BVr79QNAiNoXaO3XDwAhal+gtV8/AAAAAAAAAAAAAAAAAAAAAIT7C+MwZNu7rHl0AAAAAElFTkSuQmCC;movable=0;resizable=0;rotatable=0;deletable=0;editable=0;locked=1;connectable=0;" parent="1" vertex="1">
          <mxGeometry x="640" y="570" width="33" height="33" as="geometry" />
        </mxCell>
        <mxCell id="gc8dFEO9YDhPJcYlbeMj-111" value="" style="shape=ext;double=1;rounded=0;whiteSpace=wrap;html=1;movable=1;resizable=1;rotatable=1;deletable=1;editable=1;locked=0;connectable=1;" parent="1" vertex="1">
          <mxGeometry x="190" y="230" width="480" height="260" as="geometry" />
        </mxCell>
        <mxCell id="gc8dFEO9YDhPJcYlbeMj-116" value="" style="shape=partialRectangle;whiteSpace=wrap;html=1;left=0;right=0;fillColor=#363636;gradientColor=default;rotation=-90;" parent="1" vertex="1">
          <mxGeometry x="520" y="390" width="400" height="40" as="geometry" />
        </mxCell>
        <mxCell id="gc8dFEO9YDhPJcYlbeMj-117" value="" style="shape=filledEdge;rounded=0;fixDash=1;endArrow=none;strokeWidth=5;fillColor=#feb10b;html=1;dashed=1;dashPattern=12 12;entryX=1;entryY=0.5;entryDx=0;entryDy=0;exitX=0;exitY=0.5;exitDx=0;exitDy=0;" parent="1" source="gc8dFEO9YDhPJcYlbeMj-116" target="gc8dFEO9YDhPJcYlbeMj-116" edge="1">
          <mxGeometry width="60" height="40" relative="1" as="geometry">
            <mxPoint x="84" y="377" as="sourcePoint" />
            <mxPoint x="845" y="375" as="targetPoint" />
          </mxGeometry>
        </mxCell>
        <mxCell id="gc8dFEO9YDhPJcYlbeMj-129" value="P1" style="html=1;dashed=0;outlineConnect=0;align=center;shape=mxgraph.pid.filters.liquid_filter_(biological);rotation=0;" parent="1" vertex="1">
          <mxGeometry x="210" y="240" width="37.5" height="85" as="geometry" />
        </mxCell>
        <mxCell id="gc8dFEO9YDhPJcYlbeMj-132" value="" style="shape=partialRectangle;whiteSpace=wrap;html=1;left=0;right=0;fillColor=#363636;gradientColor=default;rotation=-90;" parent="1" vertex="1">
          <mxGeometry x="-40" y="390" width="400" height="40" as="geometry" />
        </mxCell>
        <mxCell id="gc8dFEO9YDhPJcYlbeMj-133" value="" style="shape=filledEdge;rounded=0;fixDash=1;endArrow=none;strokeWidth=5;fillColor=#feb10b;html=1;dashed=1;dashPattern=12 12;entryX=1;entryY=0.5;entryDx=0;entryDy=0;exitX=0;exitY=0.5;exitDx=0;exitDy=0;" parent="1" source="gc8dFEO9YDhPJcYlbeMj-132" target="gc8dFEO9YDhPJcYlbeMj-132" edge="1">
          <mxGeometry width="60" height="40" relative="1" as="geometry">
            <mxPoint x="-476" y="377" as="sourcePoint" />
            <mxPoint x="285" y="375" as="targetPoint" />
          </mxGeometry>
        </mxCell>
        <mxCell id="gc8dFEO9YDhPJcYlbeMj-110" value="" style="shape=image;verticalLabelPosition=bottom;labelBackgroundColor=default;verticalAlign=top;aspect=fixed;imageAspect=0;image=data:image/png,iVBORw0KGgoAAAANSUhEUgAAAgAAAAIACAYAAAD0eNT6AAAABHNCSVQICAgIfAhkiAAAAAlwSFlzAAAOxAAADsQBlSsOGwAAABl0RVh0U29mdHdhcmUAd3d3Lmlua3NjYXBlLm9yZ5vuPBoAABaxSURBVHic7d15tJ9lYSfw793vzU4WuCQhISxhjYOAUARGBazTakedutfRqbacDkOr1VbH1oNWTjvnjOfYVuvGQW3xVKWlLuM2ArK1CggquzYRJUAIIGQhyc12l/njQpWSCfn98rt5fr/7fD7nvCf/3Of9fc9Ncp/vfd/nfZ8EAAAAAAAAAAAAAAAAAAAAAAAAAAAAAAAAAAAAAAAAAAAAAAAAAAAAAAAAAAAAAAAAAAAAAAAAAAAAAAAAAAAAAAAAAAAAAAAAAAAAAAAAAAAAAAAAAAAAAAAAAAAAAAAAAAAAAAAAAAAAAAAAAAAAAAAAAAAAAAAAAAAAAAAAAAAAAAAAAAAAAAAAAAAAAAAAAAAAAAAAAAAAAAAAAAAAAAAAAAAAAAAAAAAAAAAAAAAAAAAAAAAAAAAAAAAAAAAAAAAAAAAAAAAAAAAAAIAadZUOMM0MJFmWZE6SuUm6y8ZhP00k2ZRkS5K1SXaWjQPQOgrA/jkyyYuTnJPk5CSHJ+kpGYgpM5bJEvDDJNcmuTLJmqKJADighpKcn+Q7mfwN0VHvcXOSC5LMDADT1lCSdyV5OOUnHkd7HY8m+ZMkMwLAtPLrSe5N+YnG0d7HfUleHgA63mCSv075icXRWcdlcVsAoGMtyeSCr9KTiaMzjzsz+UQIQFvyFMCerUzyrUyu6odmPZjkPyW5u3QQgH9PAXimwzK5wv+w0kGYFh5LclaSfy0dBOCXKQBPtzCTk//K0kGYVn6W5Iwkj5QOAvAUb6r7ha4kn4rJn9ZbkeQL8ZIooI34gfQL70zy+6VDMG0dnmR3khsK5wBI4hbAU5YluSce3WJq7UrynFgPALQBBWDSl9OCF7isXNaf806bmSWLerN4UW9mDj3zDsulX9mUK2/a1tB5/+7C4fT1+qs60EZ2jmf9xtGs2zCW6+4eyY/X7WrFab+VyScDAIrqLR2gDZyc/Zj8e3u68taXz80fvn5+jlne/6xff+2tjU3+SfKK02dlsE8BKO3eh3fnw9/YlE99e3N2j000e5qXJDkzk4tNAYqxCHDyHe5NOfW4wdx9+Yp84n8O79PkT2c7crgvf/2WRbnjQ8tz+tGD+3OqP21VJoBm1V4AhtPkb/+vOW92brhkeVYuM/HX5ohD+nLVRUvzhrNnN3uKlyRZ3sJIAA2rvQD8Vpq4DXLu82bm7y9enKEBl+VrNdDXlU9dMJxfP7mpdaPdSd7Y4kgADam9ALyi0QGHHdKXf/hfi9PbY/KvXXdX8rcXDufwg/uaGf7KVucBaETNBWBGktMaHXTx7y3M/Dlen8CkuTO6c/HrFjQz9KQk81scB2Cf1VwAfiVJQzfwVy7rzxt/be4UxaFTvfqM2Tlx2UCjw3qSPH8K4gDsk5oLwPGNDnjNebPTU/N3jD3q6kpefcasZoYe1+osAPuq5ums4Xf+v+yspn7IU4GXntLUYsBjWp0DYF/VXAAObnTAqqMavsxLJY5fOtDM1aGG/w0CtErNBaChh7jnzOzOjMGav13sTU93srDxxaFNv0gAYH/VPKPNaOSLrfzn2SyY1fC/EfeUgGJqLgAN6fad4ll0d3s3BNA5TGsAUCG7AbJHdz+wKz96cFc2jYyVjtIxNmz1vQI6hwLA03z7zpH88WU/z90P7CodBYAppADwbz551ea8/dOPZrzpre4B6BTWAJAkuXH1jvzhZ0z+ALVQAEiSvP/yxzM2XjoFAAeKAkAe3zKWG+4ZKR0DgANIASD3/Xy3S/8AlVEAyLYdZn+A2igAAFAhBQAAKqQAAECFFAAAqJACAAAV8ipgmvL6t/9BnnfOi0rHaCsf/P23Z/3ataVjAOwTBYCmHLJ0SY5adWLpGG2lf3CwdASAfeYWAABUSAEAgAopAABQIQUAACqkAABAhRQAAKiQAgAAFVIAAKBCCgAAVEgBAIAKKQAAUCEFAAAqpAAAQIUUAACokAIAABVSAACgQgoAAFRIAQCACikAAFAhBQAAKqQAAECFFAAAqJACAAAVUgAAoEIKAABUSAEAgAopAABQIQUAACqkAABAhRQAAKiQAgAAFVIAAKBCCgAAVEgBAIAKKQAAUCEFAAAqpAAAQIUUAACokAIAABVSAACgQgoAAFRIAQCACikAAFAhBQAAKqQAAECFFAAAqJACAAAVUgAAoEIKAABUSAEAgAopAABQIQUAACqkAABAhRQAAKiQAgAAFVIAAKBCCgAAVEgBAIAKKQAAUCEFAAAqpAAAQIUUAACokAIAABVSAACgQgoAAFRIAQCACikAAFAhBQAAKqQAAECFFAAAqJACAAAVUgAAoEIKAABUSAEAgAopAABQIQUAACqkAABAhXpLB4BOMDY6mofvfyDrfvrTbPz5z7N920h2jIxkYmIiS1asyDHPPSkTExOlYwLsMwUA9mDr5s2586abc+eNN+fOG2/Kgz/9acZGR0vHAmgZBQCeNLp7d2655tpc+8Uv59Zrr8vo7t2lI7WLniTLk6xMckySRUlmJpmRZCLJpiRbk6xN8q9PHpuLJAX2mQJA9XaMjOSqy/8x//TJS7LhkUdLx2kXK5L8RpJzkrwgybwGxk4kuSvJNUmuevLY1eqAwP5RAKjW2OhovvLpv80/ffwT2bLJL6xJBpO8Icmbk5ydpKvJ83QlWfXk8bYkjyf5fJJLk9y+/zGBVlAAqNLdt9yaT7z3fVm7enXpKO1gVpLfS/LOJMNTcP4FSS5M8j+SfD3Jnye5aQo+B2iAAkBVxkbH8g9/89F84SMfzcT4eOk47eA3knwsydID8FldSV725PG1JBckeeAAfC6wBwoA1Xh03br87wvfltW3uQqd5LAkn0lybqHPf1mS/5jk3Uk+USgDVM2LgKjC2tWr8+5XvdbkP+m8JLek3OT/lDlJPp7kS0kOKpwFqqMAMO3ddfP38u5XvS6PP/xI6Sjt4E+SXJnkkNJBfskrMrkmYEXpIFATBYBpbfVtt+cDb/mdjGzZUjpKaV1JPpjJBXjNru6fSiuTfDfJSaWDQC0UAKat+1evyZ/99luzY2R76Sjt4KNJ/qh0iGcxnMl3B5xYOgjUQAFgWtq8YUPe/9/e6vn+SX+W5L+XDrGPDkryrSSHF84B056nAJh2JsbH81fvfFceW7++ZeccmDEz8w8+NHMXLsqM2XMzMGNmenp6093dnbGxsezcPpI7v3ttdo5sa9lntsibklxUOkSDFif5apLTk4wUzgLTlgLAtPPFSy7N96+7fr/P093Tm8UrjsqhRxydeQv3vmZuxuw56esfaLcCsDLJ35QO0aQTM5n9LaWDwHSlADCtPHTfffn8X314v87R1d2dZStPyOHHPyf9g0MtSnbA9Se5IsnsVpxszoJFWTC8JHMXHpyZc+amf3AovX39GR8fz+iundm+dUu2bNqQjY+uz2MPPZDRXS159f9vJ7k6yedacTLg6RQAppVL3veB7Nq5s+nxc+YvzAlnvCCz5nb8Y+nvzOS7+JvW09ubJUcek6VHH5+Zc+bu8Wu6u7vTPziU/sGhzF14cJYedWzGx8by6INrs/ZHd+SJDY/tT4Qk+csk30yycX9PBDydAsC0cfNVV+cHN/xz0+OXHnVsjjn1jHR397QwVRHLk7x3f04wvPzIrDz59AwMzWh4bHdPT4aXH5Hh5Ufk4bX3ZvUPbs7O7U3fyj84k48uXtDsCYA9UwCYNr7w4eZvdx+56uQcserkFqYp6n1JGp+5k/T29eW4087K8PIjWxJkePmRWTC8JHfdeH0ee6jp1/7/bpIPJflJS0IBSTwGyDTx/euuz7133d3U2BUnnDSdJv/lSd7YzMD+waGccu5LWzb5P6VvYDAnveBXs/To45o9RW8m9wwAWkgBYFr48qWfbmrc8PIjctR/OLXFaYp6R5K+Rgf19vfnlHN+LXPmL5yCSElXV1eOe96ZWXLkMc2e4k2ZfDwQaBEFgI732Pr1uePGxreXH5o1O8eddvYUJCpmIE389t/V1ZXnnHluZs2bPwWRnu64087MQYcc2szQ/jR5ZQPYMwWAjnftF7+cifHxhscde+rz09vX8C/L7eylSRqexZcfuyoLDl0yBXGeqaurO6ue/6L09vc3M/xNrc4DNVMA6Hjf+eb/bXjMwsWHZeHiw6YgTVGvaXTA4MxZB3z9w8DQjBz1nFOaGXrCkwfQAgoAHW3Lxk352Y9+3PC4FSdMu03nupK8qNFBK044KT29B/5hoKVHHZfBmbOaGXpuq7NArTwGSEe786abG778P2f+wsxbtPdX+3agVZl8Zn6f9Q0MZPGKo6cozt499bbF1T+8udGhr01yzxREovNsTLItyYNJthbO0pEUADraPbfe2vCYQw8/agqSFHd6owMOWXZEunvKvfRo+PAjs+a272ViYqKRYc9PctUURaJz3Z/ku0muTPLFJLYB3QduAdDRHvzJvQ2PWbhk2RQkKe7YRgcsKvx9GBiaMWWPHVKdZUlel+TTSdY/+efKook6gAJAR1v3s5819PUDM2Zmxuw5U5SmqIYesO/q6sq8RcNTlWWfHXRwU48Ewt4MZXIjqXuSfCTJnjeyQAGgc42NjubRdQ81NGb2AXjWvZCGnuMbmDGzLR6BnNn5my7RvnqSXJjkziRnFs7SlhQAOtbIlq0NLwCcpr/9J0lDS+qHmluB33JDs9ojB9PaYUmujRdJPYMCQMfavm1bw2P6BganIElbaKjZ9PY19SKelmuXHEx7fUkuS3J+6SDtRAGgY20fabwA9PSWv+w9RRqaSbu62+O//jTYepnO0ZXkY0leXjpIu2iPnwLQhLHdow2P6e7umoIkQIfoSfLZNLhodrpSAACoyewkl2byikDVFAA6V1f1/3+B5pwVm0spAHSugcHGF/SNjY5NQRKgA12Uyt+GqwDQsWY08QjZ2OjuKUgCdKAjkvxm6RAlVd1+6GxDs2Y2PGZHE08O8AsT4+N55IH78vj6B7Nz+7Y09hr/Z2qmkP3mObPzq6c3/nfP9LJj10RW378rX7l+Sx58tPEFwU96c5LLWxiroygAdKyBoaH0Dw5m144d+zxm6+aNU5hoetuy8fHc8S/XZGRL2X1WfuXEoZz/ynlFM9A+PvT2g/OXn9+Q9378sYyONdxIz8vkS7Sq3E1QAaApX7/s73PLNdeVjpG+/v6GCsCWDY/l9n++Ol1TsIBwx7bp+zNk66YNufXqr2V0t1sotJf+vq68+00LsuyQvvzWRQ81elWqL8nZSb45JeHanAJAU9bccUfW3HFH6RgNm5iYyKMP3Fc6RkeZmJjIXTdeb/Knrb3+JXPylRu25vKrnmh06EmptABYBAjs1YZHHsqWjY+XjgHP6m2va2pzqaNbnaNTKADAXm18pLEdF6GU008YymB/w7f3FkxFlk6gAAB71cgaCyipuztZOK/h/SWqfaREAQD2qq9/oHQE2CcTE8mGJxrbIjzJyFRk6QQKAGmTjeFoU/MOHi4dAfbJbat3ZGRHwwWg2meD/egnC2bZkpX/v4WLl2bmHM/d0/4+dsWmZoataXWOTqEAkJWL+7NgthLAnnV1def4089Kt0tFtLErb96Wz3y1qQJwZ6uzdAr/o0lPd/JfXzCndAza2LxFw3nuC1+S/oHGN2CCqTQxkVz2jc155R+vy1jDV/8zluT61qfqDF4ERJLkPa+cn6/dujU/edjLXtiz+cNLcuZ/fm3W3fvjPL7+wezYti3j4/u3u+LE+HjD+zOseWBXrv6ePR1qt2nLeH68dleu+PYTuX3NzmZPc0OSpi4bTAcKAEmSeTO7840/XZL/8sH1uev+pv8zMc319vVl+bGrsvzYVS0537bNm/Ldr1/R0JhLvrQpl3yp2p/ZtNZlpQOU5BYA/2b5or7c+BeH5SNvPThnHzeURXOsCwCmrYdT8U6AiSsA/Dv9vV05/8Vzc/6L55aO0nFOedf9rp5A5/jzJNtLhyjJFQAAanNnkk+WDlGaAgBATXYkeXOS6lc8KwAA1OSCJD8sHaIdKAAA1OKiJJ8pHaJdWAQIwHQ3keQDSS4uHaSdKAAATGebk/xOksZeOFEBtwAAmK6uSHJCTP57pAAAMJ1MJPlWkrOTvDrJurJx2pdbAAB0up1JbkpyZZLPJbmvaJoOoQAAneazSb5aOgTFjSZ5IsnaTE74o0XTdCAFAOg0dyT5x9IhoNNZAwAAFVIAAKBCCgAAVEgBAIAKKQAAUCEFAAAqpAAAQIUUAACokAIAABVSAACgQgoAAFRIAQCACikAAFAhBQAAKqQAAECFFAAAqJACAAAVUgAAoEIKAABUSAEAgAopAABQIQUAACqkAABAhRQAAKiQAgAAFVIAAKBCCgAAVEgBAIAKKQAAUCEFAAAqpAAAQIUUAACokAIAABVSAACgQgoAAFRIAQCACikAAFAhBQAAKtRbOgBw4I08sTn33XN76RjZtWN76QhQLQUAKrR188asue2W0jGAgtwCAIAKKQAAUCEFAAAqpAAAQIUUAACokAIAABVSAACgQgoAAFRIAQCACikAAFAhBQAAKmQvAKjQc089Lb/7B+8oHSPr1z2Yi9/zR6VjQJUUAKjQ4NBQFi89rHSMjI2NlY4A1XILAAAqpAAAQIUUAACokAIAABVSAACgQgoAAFRIAQCACikAAFAhBQAAKqQAAECFFAAAqJACAAAVUgAAoEIKAABUSAEAgAopAABQIQUAACqkAABAhXpLB+gU4+PJxi1j+32enbsnGh6zadt4Bvq69vuzmVpj4w3/3fYkOahFH9/QP5DR0dFs3bKlRR/dvJFt25oZNpTWfd+ox44k20uHaCc1zyrXJnlh6RAAHDAbklyT5ENJbiycpTi3AACoxfwkr0rynSR/kbp/CVYAAKhOV5L3JHlX6SAl1VwABksHAKCo9yc5rHSIUmouAIeUDgBAUYNJ3lA6RCk1F4BZpQMAUNyppQOUUnMBWFs6AADFLSgdoJSaC8DW0gEAKK7aJwFqLgAAUC0FAAAqpAAAQIUUAACokM2A9tGMGTNz1jnnlY4BwF78yzVXZ2SkqU2mqqMA7KPZc+fmgndU/dZIgLZ3+/dvUQD2kVsAAFAhBQAAKqQAAECFFAAAqJACAAAVUgAAoEIKAABUSAEAgAopAABQIQUAACqkAABAhRQAAKiQAgAAFVIAAKBCCgAAVEgBAIAKKQAAUCEFAAAqpAAAQIV6SwfoFDt37Mh3rr+mdAwA9mLnjh2lI3SMrtIBCro2yQtLhwCgqOuSvKh0iBLcAgCACikAAFAhBQAAKqQAAECFFAAAqFDNBWBL6QAAFLe5dIBSai4APyodAIDiqp0Lai4AlyeZKB0CgGImMjkXVKnmAvCDJJ8tHQKAYv4uyW2lQ5RS85sAk2RGkv+T5NzSQQA4oK5K8vIk20sHKaWndIDCdif5XCYXgZyQZE7ZOABMsQeSvD/J25LsKhulrNqvAPyyriQrkxwamyQBTDejSR5KsibWfwEAAAAAAAAAAAAAAAAAAAAAAAAAAAAAAAAAAAAAAAAAAAAAAAAAAAAAAAAAAAAAAAAAAAAAAAAAAAAAAAAAAAAAAAAAAAAAAAAAAAAAAAAAAAAAAAAAAAAAAAAAAAAAAAAAAAAAAAAAAAAAAAAAAAAAAAAAAAAAAAAAAAAAAAAAAAAAAAAAAAAAAAAAAAAAAAAAAAAAAAAAAAAAAAAAAAAAAAAAAAAAAAAAAAAAAAAAAAAAAAAAAAAAAAAAAAAAAAAAAAAAAAAAAAAAAAAAULH/Byw3PD9CPe8xAAAAAElFTkSuQmCC;movable=1;resizable=1;rotatable=1;deletable=1;editable=1;locked=0;connectable=1;" parent="1" vertex="1">
          <mxGeometry x="91" y="524" width="90" height="90" as="geometry" />
        </mxCell>
        <mxCell id="gc8dFEO9YDhPJcYlbeMj-134" value="" style="shape=partialRectangle;whiteSpace=wrap;html=1;left=0;right=0;fillColor=#363636;gradientColor=default;rotation=0;" parent="1" vertex="1">
          <mxGeometry x="180" y="500" width="520" height="40" as="geometry" />
        </mxCell>
        <mxCell id="gc8dFEO9YDhPJcYlbeMj-135" value="" style="shape=filledEdge;rounded=0;fixDash=1;endArrow=none;strokeWidth=5;fillColor=#feb10b;html=1;dashed=1;dashPattern=12 12;entryX=1;entryY=0.5;entryDx=0;entryDy=0;exitX=0;exitY=0.5;exitDx=0;exitDy=0;" parent="1" source="gc8dFEO9YDhPJcYlbeMj-134" target="gc8dFEO9YDhPJcYlbeMj-134" edge="1">
          <mxGeometry width="60" height="40" relative="1" as="geometry">
            <mxPoint x="-126" y="327" as="sourcePoint" />
            <mxPoint x="635" y="325" as="targetPoint" />
          </mxGeometry>
        </mxCell>
        <mxCell id="gc8dFEO9YDhPJcYlbeMj-76" value="" style="shape=image;verticalLabelPosition=bottom;labelBackgroundColor=default;verticalAlign=top;aspect=fixed;imageAspect=0;image=data:image/png,iVBORw0KGgoAAAANSUhEUgAAAgAAAAIACAYAAAD0eNT6AAAABHNCSVQICAgIfAhkiAAAAAlwSFlzAAAOxAAADsQBlSsOGwAAABl0RVh0U29mdHdhcmUAd3d3Lmlua3NjYXBlLm9yZ5vuPBoAABaxSURBVHic7d15tJ9lYSfw793vzU4WuCQhISxhjYOAUARGBazTakedutfRqbacDkOr1VbH1oNWTjvnjOfYVuvGQW3xVKWlLuM2ArK1CggquzYRJUAIIGQhyc12l/njQpWSCfn98rt5fr/7fD7nvCf/3Of9fc9Ncp/vfd/nfZ8EAAAAAAAAAAAAAAAAAAAAAAAAAAAAAAAAAAAAAAAAAAAAAAAAAAAAAAAAAAAAAAAAAAAAAAAAAAAAAAAAAAAAAAAAAAAAAAAAAAAAAAAAAAAAAAAAAAAAAAAAAAAAAAAAAAAAAAAAAAAAAAAAAAAAAAAAAAAAAAAAAAAAAAAAAAAAAAAAAAAAAAAAAAAAAAAAAAAAAAAAAAAAAAAAAAAAAAAAAAAAAAAAAAAAAAAAAAAAAAAAAAAAAAAAAAAAAAAAAAAAAAAAAAAAAAAAAIAadZUOMM0MJFmWZE6SuUm6y8ZhP00k2ZRkS5K1SXaWjQPQOgrA/jkyyYuTnJPk5CSHJ+kpGYgpM5bJEvDDJNcmuTLJmqKJADighpKcn+Q7mfwN0VHvcXOSC5LMDADT1lCSdyV5OOUnHkd7HY8m+ZMkMwLAtPLrSe5N+YnG0d7HfUleHgA63mCSv075icXRWcdlcVsAoGMtyeSCr9KTiaMzjzsz+UQIQFvyFMCerUzyrUyu6odmPZjkPyW5u3QQgH9PAXimwzK5wv+w0kGYFh5LclaSfy0dBOCXKQBPtzCTk//K0kGYVn6W5Iwkj5QOAvAUb6r7ha4kn4rJn9ZbkeQL8ZIooI34gfQL70zy+6VDMG0dnmR3khsK5wBI4hbAU5YluSce3WJq7UrynFgPALQBBWDSl9OCF7isXNaf806bmSWLerN4UW9mDj3zDsulX9mUK2/a1tB5/+7C4fT1+qs60EZ2jmf9xtGs2zCW6+4eyY/X7WrFab+VyScDAIrqLR2gDZyc/Zj8e3u68taXz80fvn5+jlne/6xff+2tjU3+SfKK02dlsE8BKO3eh3fnw9/YlE99e3N2j000e5qXJDkzk4tNAYqxCHDyHe5NOfW4wdx9+Yp84n8O79PkT2c7crgvf/2WRbnjQ8tz+tGD+3OqP21VJoBm1V4AhtPkb/+vOW92brhkeVYuM/HX5ohD+nLVRUvzhrNnN3uKlyRZ3sJIAA2rvQD8Vpq4DXLu82bm7y9enKEBl+VrNdDXlU9dMJxfP7mpdaPdSd7Y4kgADam9ALyi0QGHHdKXf/hfi9PbY/KvXXdX8rcXDufwg/uaGf7KVucBaETNBWBGktMaHXTx7y3M/Dlen8CkuTO6c/HrFjQz9KQk81scB2Cf1VwAfiVJQzfwVy7rzxt/be4UxaFTvfqM2Tlx2UCjw3qSPH8K4gDsk5oLwPGNDnjNebPTU/N3jD3q6kpefcasZoYe1+osAPuq5ums4Xf+v+yspn7IU4GXntLUYsBjWp0DYF/VXAAObnTAqqMavsxLJY5fOtDM1aGG/w0CtErNBaChh7jnzOzOjMGav13sTU93srDxxaFNv0gAYH/VPKPNaOSLrfzn2SyY1fC/EfeUgGJqLgAN6fad4ll0d3s3BNA5TGsAUCG7AbJHdz+wKz96cFc2jYyVjtIxNmz1vQI6hwLA03z7zpH88WU/z90P7CodBYAppADwbz551ea8/dOPZrzpre4B6BTWAJAkuXH1jvzhZ0z+ALVQAEiSvP/yxzM2XjoFAAeKAkAe3zKWG+4ZKR0DgANIASD3/Xy3S/8AlVEAyLYdZn+A2igAAFAhBQAAKqQAAECFFAAAqJACAAAV8ipgmvL6t/9BnnfOi0rHaCsf/P23Z/3ataVjAOwTBYCmHLJ0SY5adWLpGG2lf3CwdASAfeYWAABUSAEAgAopAABQIQUAACqkAABAhRQAAKiQAgAAFVIAAKBCCgAAVEgBAIAKKQAAUCEFAAAqpAAAQIUUAACokAIAABVSAACgQgoAAFRIAQCACikAAFAhBQAAKqQAAECFFAAAqJACAAAVUgAAoEIKAABUSAEAgAopAABQIQUAACqkAABAhRQAAKiQAgAAFVIAAKBCCgAAVEgBAIAKKQAAUCEFAAAqpAAAQIUUAACokAIAABVSAACgQgoAAFRIAQCACikAAFAhBQAAKqQAAECFFAAAqJACAAAVUgAAoEIKAABUSAEAgAopAABQIQUAACqkAABAhRQAAKiQAgAAFVIAAKBCCgAAVEgBAIAKKQAAUCEFAAAqpAAAQIUUAACokAIAABVSAACgQgoAAFRIAQCACikAAFAhBQAAKqQAAECFFAAAqJACAAAVUgAAoEIKAABUSAEAgAopAABQIQUAACqkAABAhXpLB4BOMDY6mofvfyDrfvrTbPz5z7N920h2jIxkYmIiS1asyDHPPSkTExOlYwLsMwUA9mDr5s2586abc+eNN+fOG2/Kgz/9acZGR0vHAmgZBQCeNLp7d2655tpc+8Uv59Zrr8vo7t2lI7WLniTLk6xMckySRUlmJpmRZCLJpiRbk6xN8q9PHpuLJAX2mQJA9XaMjOSqy/8x//TJS7LhkUdLx2kXK5L8RpJzkrwgybwGxk4kuSvJNUmuevLY1eqAwP5RAKjW2OhovvLpv80/ffwT2bLJL6xJBpO8Icmbk5ydpKvJ83QlWfXk8bYkjyf5fJJLk9y+/zGBVlAAqNLdt9yaT7z3fVm7enXpKO1gVpLfS/LOJMNTcP4FSS5M8j+SfD3Jnye5aQo+B2iAAkBVxkbH8g9/89F84SMfzcT4eOk47eA3knwsydID8FldSV725PG1JBckeeAAfC6wBwoA1Xh03br87wvfltW3uQqd5LAkn0lybqHPf1mS/5jk3Uk+USgDVM2LgKjC2tWr8+5XvdbkP+m8JLek3OT/lDlJPp7kS0kOKpwFqqMAMO3ddfP38u5XvS6PP/xI6Sjt4E+SXJnkkNJBfskrMrkmYEXpIFATBYBpbfVtt+cDb/mdjGzZUjpKaV1JPpjJBXjNru6fSiuTfDfJSaWDQC0UAKat+1evyZ/99luzY2R76Sjt4KNJ/qh0iGcxnMl3B5xYOgjUQAFgWtq8YUPe/9/e6vn+SX+W5L+XDrGPDkryrSSHF84B056nAJh2JsbH81fvfFceW7++ZeccmDEz8w8+NHMXLsqM2XMzMGNmenp6093dnbGxsezcPpI7v3ttdo5sa9lntsibklxUOkSDFif5apLTk4wUzgLTlgLAtPPFSy7N96+7fr/P093Tm8UrjsqhRxydeQv3vmZuxuw56esfaLcCsDLJ35QO0aQTM5n9LaWDwHSlADCtPHTfffn8X314v87R1d2dZStPyOHHPyf9g0MtSnbA9Se5IsnsVpxszoJFWTC8JHMXHpyZc+amf3AovX39GR8fz+iundm+dUu2bNqQjY+uz2MPPZDRXS159f9vJ7k6yedacTLg6RQAppVL3veB7Nq5s+nxc+YvzAlnvCCz5nb8Y+nvzOS7+JvW09ubJUcek6VHH5+Zc+bu8Wu6u7vTPziU/sGhzF14cJYedWzGx8by6INrs/ZHd+SJDY/tT4Qk+csk30yycX9PBDydAsC0cfNVV+cHN/xz0+OXHnVsjjn1jHR397QwVRHLk7x3f04wvPzIrDz59AwMzWh4bHdPT4aXH5Hh5Ufk4bX3ZvUPbs7O7U3fyj84k48uXtDsCYA9UwCYNr7w4eZvdx+56uQcserkFqYp6n1JGp+5k/T29eW4087K8PIjWxJkePmRWTC8JHfdeH0ee6jp1/7/bpIPJflJS0IBSTwGyDTx/euuz7133d3U2BUnnDSdJv/lSd7YzMD+waGccu5LWzb5P6VvYDAnveBXs/To45o9RW8m9wwAWkgBYFr48qWfbmrc8PIjctR/OLXFaYp6R5K+Rgf19vfnlHN+LXPmL5yCSElXV1eOe96ZWXLkMc2e4k2ZfDwQaBEFgI732Pr1uePGxreXH5o1O8eddvYUJCpmIE389t/V1ZXnnHluZs2bPwWRnu64087MQYcc2szQ/jR5ZQPYMwWAjnftF7+cifHxhscde+rz09vX8C/L7eylSRqexZcfuyoLDl0yBXGeqaurO6ue/6L09vc3M/xNrc4DNVMA6Hjf+eb/bXjMwsWHZeHiw6YgTVGvaXTA4MxZB3z9w8DQjBz1nFOaGXrCkwfQAgoAHW3Lxk352Y9+3PC4FSdMu03nupK8qNFBK044KT29B/5hoKVHHZfBmbOaGXpuq7NArTwGSEe786abG778P2f+wsxbtPdX+3agVZl8Zn6f9Q0MZPGKo6cozt499bbF1T+8udGhr01yzxREovNsTLItyYNJthbO0pEUADraPbfe2vCYQw8/agqSFHd6owMOWXZEunvKvfRo+PAjs+a272ViYqKRYc9PctUURaJz3Z/ku0muTPLFJLYB3QduAdDRHvzJvQ2PWbhk2RQkKe7YRgcsKvx9GBiaMWWPHVKdZUlel+TTSdY/+efKook6gAJAR1v3s5819PUDM2Zmxuw5U5SmqIYesO/q6sq8RcNTlWWfHXRwU48Ewt4MZXIjqXuSfCTJnjeyQAGgc42NjubRdQ81NGb2AXjWvZCGnuMbmDGzLR6BnNn5my7RvnqSXJjkziRnFs7SlhQAOtbIlq0NLwCcpr/9J0lDS+qHmluB33JDs9ojB9PaYUmujRdJPYMCQMfavm1bw2P6BganIElbaKjZ9PY19SKelmuXHEx7fUkuS3J+6SDtRAGgY20fabwA9PSWv+w9RRqaSbu62+O//jTYepnO0ZXkY0leXjpIu2iPnwLQhLHdow2P6e7umoIkQIfoSfLZNLhodrpSAACoyewkl2byikDVFAA6V1f1/3+B5pwVm0spAHSugcHGF/SNjY5NQRKgA12Uyt+GqwDQsWY08QjZ2OjuKUgCdKAjkvxm6RAlVd1+6GxDs2Y2PGZHE08O8AsT4+N55IH78vj6B7Nz+7Y09hr/Z2qmkP3mObPzq6c3/nfP9LJj10RW378rX7l+Sx58tPEFwU96c5LLWxiroygAdKyBoaH0Dw5m144d+zxm6+aNU5hoetuy8fHc8S/XZGRL2X1WfuXEoZz/ynlFM9A+PvT2g/OXn9+Q9378sYyONdxIz8vkS7Sq3E1QAaApX7/s73PLNdeVjpG+/v6GCsCWDY/l9n++Ol1TsIBwx7bp+zNk66YNufXqr2V0t1sotJf+vq68+00LsuyQvvzWRQ81elWqL8nZSb45JeHanAJAU9bccUfW3HFH6RgNm5iYyKMP3Fc6RkeZmJjIXTdeb/Knrb3+JXPylRu25vKrnmh06EmptABYBAjs1YZHHsqWjY+XjgHP6m2va2pzqaNbnaNTKADAXm18pLEdF6GU008YymB/w7f3FkxFlk6gAAB71cgaCyipuztZOK/h/SWqfaREAQD2qq9/oHQE2CcTE8mGJxrbIjzJyFRk6QQKAGmTjeFoU/MOHi4dAfbJbat3ZGRHwwWg2meD/egnC2bZkpX/v4WLl2bmHM/d0/4+dsWmZoataXWOTqEAkJWL+7NgthLAnnV1def4089Kt0tFtLErb96Wz3y1qQJwZ6uzdAr/o0lPd/JfXzCndAza2LxFw3nuC1+S/oHGN2CCqTQxkVz2jc155R+vy1jDV/8zluT61qfqDF4ERJLkPa+cn6/dujU/edjLXtiz+cNLcuZ/fm3W3fvjPL7+wezYti3j4/u3u+LE+HjD+zOseWBXrv6ePR1qt2nLeH68dleu+PYTuX3NzmZPc0OSpi4bTAcKAEmSeTO7840/XZL/8sH1uev+pv8zMc319vVl+bGrsvzYVS0537bNm/Ldr1/R0JhLvrQpl3yp2p/ZtNZlpQOU5BYA/2b5or7c+BeH5SNvPThnHzeURXOsCwCmrYdT8U6AiSsA/Dv9vV05/8Vzc/6L55aO0nFOedf9rp5A5/jzJNtLhyjJFQAAanNnkk+WDlGaAgBATXYkeXOS6lc8KwAA1OSCJD8sHaIdKAAA1OKiJJ8pHaJdWAQIwHQ3keQDSS4uHaSdKAAATGebk/xOksZeOFEBtwAAmK6uSHJCTP57pAAAMJ1MJPlWkrOTvDrJurJx2pdbAAB0up1JbkpyZZLPJbmvaJoOoQAAneazSb5aOgTFjSZ5IsnaTE74o0XTdCAFAOg0dyT5x9IhoNNZAwAAFVIAAKBCCgAAVEgBAIAKKQAAUCEFAAAqpAAAQIUUAACokAIAABVSAACgQgoAAFRIAQCACikAAFAhBQAAKqQAAECFFAAAqJACAAAVUgAAoEIKAABUSAEAgAopAABQIQUAACqkAABAhRQAAKiQAgAAFVIAAKBCCgAAVEgBAIAKKQAAUCEFAAAqpAAAQIUUAACokAIAABVSAACgQgoAAFRIAQCACikAAFAhBQAAKtRbOgBw4I08sTn33XN76RjZtWN76QhQLQUAKrR188asue2W0jGAgtwCAIAKKQAAUCEFAAAqpAAAQIUUAACokAIAABVSAACgQgoAAFRIAQCACikAAFAhBQAAKmQvAKjQc089Lb/7B+8oHSPr1z2Yi9/zR6VjQJUUAKjQ4NBQFi89rHSMjI2NlY4A1XILAAAqpAAAQIUUAACokAIAABVSAACgQgoAAFRIAQCACikAAFAhBQAAKqQAAECFFAAAqJACAAAVUgAAoEIKAABUSAEAgAopAABQIQUAACqkAABAhXpLB+gU4+PJxi1j+32enbsnGh6zadt4Bvq69vuzmVpj4w3/3fYkOahFH9/QP5DR0dFs3bKlRR/dvJFt25oZNpTWfd+ox44k20uHaCc1zyrXJnlh6RAAHDAbklyT5ENJbiycpTi3AACoxfwkr0rynSR/kbp/CVYAAKhOV5L3JHlX6SAl1VwABksHAKCo9yc5rHSIUmouAIeUDgBAUYNJ3lA6RCk1F4BZpQMAUNyppQOUUnMBWFs6AADFLSgdoJSaC8DW0gEAKK7aJwFqLgAAUC0FAAAqpAAAQIUUAACokM2A9tGMGTNz1jnnlY4BwF78yzVXZ2SkqU2mqqMA7KPZc+fmgndU/dZIgLZ3+/dvUQD2kVsAAFAhBQAAKqQAAECFFAAAqJACAAAVUgAAoEIKAABUSAEAgAopAABQIQUAACqkAABAhRQAAKiQAgAAFVIAAKBCCgAAVEgBAIAKKQAAUCEFAAAqpAAAQIV6SwfoFDt37Mh3rr+mdAwA9mLnjh2lI3SMrtIBCro2yQtLhwCgqOuSvKh0iBLcAgCACikAAFAhBQAAKqQAAECFFAAAqFDNBWBL6QAAFLe5dIBSai4APyodAIDiqp0Lai4AlyeZKB0CgGImMjkXVKnmAvCDJJ8tHQKAYv4uyW2lQ5RS85sAk2RGkv+T5NzSQQA4oK5K8vIk20sHKaWndIDCdif5XCYXgZyQZE7ZOABMsQeSvD/J25LsKhulrNqvAPyyriQrkxwamyQBTDejSR5KsibWfwEAAAAAAAAAAAAAAAAAAAAAAAAAAAAAAAAAAAAAAAAAAAAAAAAAAAAAAAAAAAAAAAAAAAAAAAAAAAAAAAAAAAAAAAAAAAAAAAAAAAAAAAAAAAAAAAAAAAAAAAAAAAAAAAAAAAAAAAAAAAAAAAAAAAAAAAAAAAAAAAAAAAAAAAAAAAAAAAAAAAAAAAAAAAAAAAAAAAAAAAAAAAAAAAAAAAAAAAAAAAAAAAAAAAAAAAAAAAAAAAAAAAAAAAAAAAAAAAAAAAAAAAAAAAAAAAAAULH/Byw3PD9CPe8xAAAAAElFTkSuQmCC;movable=1;resizable=1;rotatable=1;deletable=1;editable=1;locked=0;connectable=1;" parent="1" vertex="1">
          <mxGeometry x="670" y="531" width="90" height="90" as="geometry" />
        </mxCell>
        <mxCell id="gc8dFEO9YDhPJcYlbeMj-137" value="" style="shape=partialRectangle;whiteSpace=wrap;html=1;left=0;right=0;fillColor=#363636;gradientColor=default;rotation=0;" parent="1" vertex="1">
          <mxGeometry x="140" y="170" width="600" height="40" as="geometry" />
        </mxCell>
        <mxCell id="gc8dFEO9YDhPJcYlbeMj-138" value="" style="shape=filledEdge;rounded=0;fixDash=1;endArrow=none;strokeWidth=5;fillColor=#feb10b;html=1;dashed=1;dashPattern=12 12;entryX=1;entryY=0.5;entryDx=0;entryDy=0;exitX=0;exitY=0.5;exitDx=0;exitDy=0;" parent="1" source="gc8dFEO9YDhPJcYlbeMj-137" target="gc8dFEO9YDhPJcYlbeMj-137" edge="1">
          <mxGeometry width="60" height="40" relative="1" as="geometry">
            <mxPoint x="-166" y="-3" as="sourcePoint" />
            <mxPoint x="595" y="-5" as="targetPoint" />
          </mxGeometry>
        </mxCell>
        <mxCell id="gc8dFEO9YDhPJcYlbeMj-141" value="P1" style="html=1;dashed=0;outlineConnect=0;align=center;shape=mxgraph.pid.filters.liquid_filter_(biological);rotation=-90;" parent="1" vertex="1">
          <mxGeometry x="60" y="160" width="37.5" height="85" as="geometry" />
        </mxCell>
        <mxCell id="gc8dFEO9YDhPJcYlbeMj-142" value="P1" style="html=1;dashed=0;outlineConnect=0;align=center;shape=mxgraph.pid.filters.liquid_filter_(biological);rotation=-90;" parent="1" vertex="1">
          <mxGeometry x="60" y="220" width="37.5" height="85" as="geometry" />
        </mxCell>
        <mxCell id="gc8dFEO9YDhPJcYlbeMj-143" value="P1" style="html=1;dashed=0;outlineConnect=0;align=center;shape=mxgraph.pid.filters.liquid_filter_(biological);rotation=-90;" parent="1" vertex="1">
          <mxGeometry x="60" y="280" width="37.5" height="85" as="geometry" />
        </mxCell>
        <mxCell id="gc8dFEO9YDhPJcYlbeMj-144" value="P1" style="html=1;dashed=0;outlineConnect=0;align=center;shape=mxgraph.pid.filters.liquid_filter_(biological);rotation=-90;" parent="1" vertex="1">
          <mxGeometry x="60" y="340" width="37.5" height="85" as="geometry" />
        </mxCell>
        <mxCell id="gc8dFEO9YDhPJcYlbeMj-145" value="P1" style="html=1;dashed=0;outlineConnect=0;align=center;shape=mxgraph.pid.filters.liquid_filter_(biological);rotation=0;" parent="1" vertex="1">
          <mxGeometry x="260" y="240" width="37.5" height="85" as="geometry" />
        </mxCell>
        <mxCell id="gc8dFEO9YDhPJcYlbeMj-146" value="P1" style="html=1;dashed=0;outlineConnect=0;align=center;shape=mxgraph.pid.filters.liquid_filter_(biological);rotation=0;" parent="1" vertex="1">
          <mxGeometry x="310" y="240" width="37.5" height="85" as="geometry" />
        </mxCell>
        <mxCell id="gc8dFEO9YDhPJcYlbeMj-147" value="P1" style="html=1;dashed=0;outlineConnect=0;align=center;shape=mxgraph.pid.filters.liquid_filter_(biological);rotation=0;" parent="1" vertex="1">
          <mxGeometry x="500" y="240" width="37.5" height="85" as="geometry" />
        </mxCell>
        <mxCell id="gc8dFEO9YDhPJcYlbeMj-148" value="P1" style="html=1;dashed=0;outlineConnect=0;align=center;shape=mxgraph.pid.filters.liquid_filter_(biological);rotation=0;" parent="1" vertex="1">
          <mxGeometry x="450" y="240" width="37.5" height="85" as="geometry" />
        </mxCell>
        <mxCell id="gc8dFEO9YDhPJcYlbeMj-149" value="P1" style="html=1;dashed=0;outlineConnect=0;align=center;shape=mxgraph.pid.filters.liquid_filter_(biological);rotation=0;" parent="1" vertex="1">
          <mxGeometry x="550" y="240" width="37.5" height="85" as="geometry" />
        </mxCell>
        <mxCell id="gc8dFEO9YDhPJcYlbeMj-150" value="P1" style="html=1;dashed=0;outlineConnect=0;align=center;shape=mxgraph.pid.filters.liquid_filter_(biological);rotation=0;" parent="1" vertex="1">
          <mxGeometry x="600" y="240" width="37.5" height="85" as="geometry" />
        </mxCell>
        <mxCell id="gc8dFEO9YDhPJcYlbeMj-151" value="P1" style="html=1;dashed=0;outlineConnect=0;align=center;shape=mxgraph.pid.filters.liquid_filter_(biological);rotation=0;" parent="1" vertex="1">
          <mxGeometry x="210" y="390" width="37.5" height="85" as="geometry" />
        </mxCell>
        <mxCell id="gc8dFEO9YDhPJcYlbeMj-152" value="P1" style="html=1;dashed=0;outlineConnect=0;align=center;shape=mxgraph.pid.filters.liquid_filter_(biological);rotation=0;" parent="1" vertex="1">
          <mxGeometry x="260" y="390" width="37.5" height="85" as="geometry" />
        </mxCell>
        <mxCell id="gc8dFEO9YDhPJcYlbeMj-153" value="P1" style="html=1;dashed=0;outlineConnect=0;align=center;shape=mxgraph.pid.filters.liquid_filter_(biological);rotation=0;" parent="1" vertex="1">
          <mxGeometry x="310" y="390" width="37.5" height="85" as="geometry" />
        </mxCell>
        <mxCell id="gc8dFEO9YDhPJcYlbeMj-154" value="P1" style="html=1;dashed=0;outlineConnect=0;align=center;shape=mxgraph.pid.filters.liquid_filter_(biological);rotation=0;" parent="1" vertex="1">
          <mxGeometry x="450" y="390" width="37.5" height="85" as="geometry" />
        </mxCell>
        <mxCell id="gc8dFEO9YDhPJcYlbeMj-155" value="P1" style="html=1;dashed=0;outlineConnect=0;align=center;shape=mxgraph.pid.filters.liquid_filter_(biological);rotation=0;" parent="1" vertex="1">
          <mxGeometry x="500" y="390" width="37.5" height="85" as="geometry" />
        </mxCell>
        <mxCell id="gc8dFEO9YDhPJcYlbeMj-156" value="P1" style="html=1;dashed=0;outlineConnect=0;align=center;shape=mxgraph.pid.filters.liquid_filter_(biological);rotation=0;" parent="1" vertex="1">
          <mxGeometry x="550" y="390" width="37.5" height="85" as="geometry" />
        </mxCell>
        <mxCell id="gc8dFEO9YDhPJcYlbeMj-157" value="P1" style="html=1;dashed=0;outlineConnect=0;align=center;shape=mxgraph.pid.filters.liquid_filter_(biological);rotation=0;" parent="1" vertex="1">
          <mxGeometry x="600" y="390" width="37.5" height="85" as="geometry" />
        </mxCell>
        <mxCell id="gc8dFEO9YDhPJcYlbeMj-166" value="&lt;div&gt;&lt;br&gt;&lt;/div&gt;&lt;div&gt;&lt;br&gt;&lt;/div&gt;&lt;div&gt;&lt;br&gt;&lt;/div&gt;" style="shape=mxgraph.pid.heat_exchangers.u_shaped_tubes_heat_exchanger;html=1;pointerEvents=1;align=center;verticalLabelPosition=bottom;verticalAlign=top;dashed=0;rotation=90;" parent="1" vertex="1">
          <mxGeometry x="360" y="267" width="100" height="30" as="geometry" />
        </mxCell>
        <mxCell id="gc8dFEO9YDhPJcYlbeMj-167" value="&lt;div&gt;&lt;br&gt;&lt;/div&gt;&lt;div&gt;&lt;br&gt;&lt;/div&gt;&lt;div&gt;&lt;br&gt;&lt;/div&gt;" style="shape=mxgraph.pid.heat_exchangers.u_shaped_tubes_heat_exchanger;html=1;pointerEvents=1;align=center;verticalLabelPosition=bottom;verticalAlign=top;dashed=0;rotation=-90;" parent="1" vertex="1">
          <mxGeometry x="360" y="423" width="100" height="30" as="geometry" />
        </mxCell>
        <mxCell id="gc8dFEO9YDhPJcYlbeMj-169" value="" style="shape=partialRectangle;whiteSpace=wrap;html=1;left=0;right=0;fillColor=#363636;gradientColor=default;rotation=0;" parent="1" vertex="1">
          <mxGeometry x="180" y="339" width="520" height="40" as="geometry" />
        </mxCell>
        <mxCell id="gc8dFEO9YDhPJcYlbeMj-170" value="" style="shape=filledEdge;rounded=0;fixDash=1;endArrow=none;strokeWidth=5;fillColor=#feb10b;html=1;dashed=1;dashPattern=12 12;entryX=1;entryY=0.5;entryDx=0;entryDy=0;exitX=0;exitY=0.5;exitDx=0;exitDy=0;" parent="1" source="gc8dFEO9YDhPJcYlbeMj-169" target="gc8dFEO9YDhPJcYlbeMj-169" edge="1">
          <mxGeometry width="60" height="40" relative="1" as="geometry">
            <mxPoint x="-126" y="157" as="sourcePoint" />
            <mxPoint x="635" y="155" as="targetPoint" />
          </mxGeometry>
        </mxCell>
      </root>
    </mxGraphModel>
  </diagram>
</mxfile>
